<?xml version="1.0" encoding="UTF-8"?>
<svg version="1.1" xmlns="http://www.w3.org/2000/svg" width="512" height="512">
<path d="M0 0 C3.97053404 3.2926111 7.62261521 6.85740952 11.17285156 10.59521484 C11.99398438 11.45759766 12.81511719 12.31998047 13.66113281 13.20849609 C29.47561045 31.20804837 36.44212584 54.77874489 35.32080078 78.49951172 C33.54810477 103.60978004 22.17165513 126.57524535 3.17285156 143.22021484 C-7.72345591 152.32244159 -20.15844661 157.56427984 -33.50927734 162.0090332 C-48.07733123 166.93899829 -63.48066774 175.03657848 -72.82714844 187.59521484 C-72.35664063 188.09150391 -71.88613281 188.58779297 -71.40136719 189.09912109 C-65.17258687 195.89532653 -62.17525366 201.51154047 -62.48339844 210.88427734 C-63.35429413 217.75247748 -66.73427164 222.0377905 -71.94824219 226.36865234 C-77.63023593 230.07789566 -83.22399561 230.33714213 -89.82714844 229.59521484 C-95.81062922 227.79197406 -99.69475317 224.14084964 -103.82714844 219.59521484 C-106.62338402 220.87124877 -108.66904768 222.1888064 -110.83424473 224.36459541 C-111.40321871 224.9314374 -111.9721927 225.49827938 -112.55840832 226.0822984 C-113.17347821 226.70524033 -113.7885481 227.32818226 -114.42225647 227.97000122 C-115.08353198 228.63168458 -115.74480749 229.29336794 -116.42612165 229.97510231 C-118.64538119 232.19809839 -120.85740605 234.42815757 -123.06958008 236.65820312 C-124.6577616 238.25185917 -126.2464062 239.84505384 -127.83547974 241.43782043 C-131.26006059 244.87212238 -134.68155792 248.30945734 -138.10078621 251.74908829 C-143.5128298 257.19293141 -148.93301253 262.62862067 -154.354599 268.06295776 C-161.96097291 275.68858666 -169.56491838 283.31662264 -177.16577148 290.94775391 C-177.64809427 291.43199463 -178.13041706 291.91623535 -178.62735569 292.41515003 C-184.0005572 297.80986813 -189.3729366 303.2054038 -194.74438477 308.60186768 C-196.68822351 310.55473707 -198.6320692 312.50759953 -200.57592773 314.46044922 C-201.05553768 314.94228083 -201.53514763 315.42411243 -202.02929122 315.920545 C-210.0482316 323.97630439 -218.07314594 332.02607858 -226.10248464 340.07147586 C-231.48652356 345.46700767 -236.86355277 350.86939827 -242.23536408 356.27710271 C-245.58968499 359.65069693 -248.95032302 363.01794386 -252.31270218 366.38350487 C-253.8636445 367.93844644 -255.41201783 369.49595558 -256.95752907 371.05629539 C-280.06101191 394.37329993 -305.74662659 409.08108674 -339.20214844 409.84521484 C-353.36397472 409.87055208 -372.66717127 408.67686961 -383.40136719 398.40380859 C-394.13934601 384.782756 -393.82569647 361.5478093 -392.55371094 345.04833984 C-390.9399464 331.83373968 -387.24069176 319.66063241 -381.13964844 307.84521484 C-380.76646484 307.11407471 -380.39328125 306.38293457 -380.00878906 305.62963867 C-372.35542707 291.48000031 -361.0293211 280.37286676 -349.72900391 269.15649414 C-348.12099279 267.54933098 -346.51364541 265.9415035 -344.90690613 264.33306885 C-340.57754815 260.00285606 -336.23905508 255.68190504 -331.89876699 251.36265159 C-327.35167154 246.83440922 -322.81316545 242.29757406 -318.27371216 237.76167297 C-310.66451894 230.1607213 -303.05012779 222.56502246 -295.43164062 214.97338867 C-287.59052603 207.15988318 -279.75262233 199.34317936 -271.91894531 191.5222168 C-271.43469227 191.03875192 -270.95043922 190.55528705 -270.45151184 190.05717172 C-268.02176277 187.63133824 -265.59207594 185.20544242 -263.16242003 182.77951562 C-243.06030189 162.70841136 -222.94722111 142.64831964 -202.82714844 122.59521484 C-203.23271973 122.0626709 -203.63829102 121.53012695 -204.05615234 120.98144531 C-204.59159668 120.27391113 -205.12704102 119.56637695 -205.67871094 118.83740234 C-206.47269287 117.79108643 -206.47269287 117.79108643 -207.28271484 116.72363281 C-212.04234103 110.16428708 -213.85415139 104.74623828 -212.82714844 96.59521484 C-211.67783058 90.40228853 -208.70578485 87.04190829 -203.95996094 83.04052734 C-198.19427428 79.13337705 -192.60520787 78.85037315 -185.82714844 79.59521484 C-179.37897941 81.39090749 -174.58951129 85.0012957 -169.82714844 89.59521484 C-157.378841 74.66197912 -148.78912966 59.59556088 -141.84472656 41.38745117 C-132.66717287 17.62914662 -116.86848094 -0.11287426 -93.70996094 -10.75244141 C-63.40679486 -23.97550524 -26.44725669 -20.33371392 0 0 Z M-176.29272097 157.78863847 C-177.22232063 158.72390711 -177.22232063 158.72390711 -178.17070007 159.67807007 C-178.82900544 160.33254989 -179.48731082 160.98702972 -180.16556484 161.66134226 C-182.38659439 163.87199227 -184.60034437 166.08979348 -186.81420898 168.30761719 C-188.39877653 169.88784071 -189.98376258 171.46764467 -191.56913757 173.04705811 C-195.88822192 177.35270044 -200.20082359 181.66478176 -204.51192832 185.97841215 C-208.11064341 189.57819453 -211.71232532 193.17500116 -215.31397182 196.77185023 C-224.30328919 205.74941562 -233.28626883 214.73328709 -242.26650158 223.7199368 C-250.05352723 231.51211974 -257.84870481 239.29608797 -265.64782598 247.07616298 C-273.65979308 255.06871466 -281.66599383 263.06699445 -289.66653091 271.07099116 C-294.15648354 275.56275468 -298.64861994 280.05227712 -303.14642906 284.53617477 C-307.38266351 288.75979851 -311.6115265 292.99066892 -315.83494759 297.22710419 C-317.38228515 298.77680088 -318.93215875 300.32397039 -320.48480988 301.86834335 C-335.58433316 316.89318816 -348.79250453 332.32005582 -348.95458984 354.63745117 C-348.95105036 358.29126179 -348.89808285 361.94209284 -348.82714844 365.59521484 C-326.60514639 366.26187491 -310.6417234 361.49853138 -294.09963822 345.97396541 C-289.32408857 341.37897397 -284.6566605 336.67558249 -279.98266602 331.9777832 C-278.41499103 330.40954311 -276.8468736 328.84174519 -275.27835083 327.27435303 C-271.04944195 323.04601475 -266.82670052 318.81156649 -262.60508943 314.57594371 C-258.18179299 310.140091 -253.75278038 305.70995295 -249.3243866 301.27919006 C-241.90142051 293.85072671 -234.48194829 286.41878712 -227.06518555 278.98413086 C-219.43083095 271.33137713 -211.79434798 263.68075748 -204.1550293 256.03295898 C-203.68298696 255.5603912 -203.21094462 255.08782341 -202.72459797 254.60093539 C-200.35614218 252.22986925 -197.98764486 249.85884459 -195.61912692 247.48784053 C-176.01545366 227.86329785 -156.41893129 208.23162759 -136.82714844 188.59521484 C-138.2276735 185.6838232 -139.58123942 183.58907057 -141.86816406 181.29541016 C-142.78921936 180.36489838 -142.78921936 180.36489838 -143.72888184 179.41558838 C-144.39037231 178.75814636 -145.05186279 178.10070435 -145.73339844 177.42333984 C-146.75415466 176.39971344 -146.75415466 176.39971344 -147.79553223 175.35540771 C-149.23216041 173.91742057 -150.67130928 172.48194792 -152.11279297 171.04882812 C-154.32591272 168.84644456 -156.52813316 166.63356551 -158.72949219 164.41943359 C-160.12598647 163.02426031 -161.52310071 161.62970723 -162.92089844 160.23583984 C-163.58238892 159.5703009 -164.24387939 158.90476196 -164.92541504 158.21905518 C-165.84647034 157.30745636 -165.84647034 157.30745636 -166.78613281 156.37744141 C-167.32637085 155.83879456 -167.86660889 155.30014771 -168.42321777 154.74517822 C-171.8703696 151.9216069 -173.7349748 155.25734252 -176.29272097 157.78863847 Z " fill="#000000" transform="translate(434.8271484375,60.40478515625)"/>
</svg>
