<?xml version="1.0" encoding="UTF-8"?>
<svg version="1.1" xmlns="http://www.w3.org/2000/svg" width="512" height="512">
<path d="M0 0 C62.7 0 125.4 0 190 0 C190.33 19.47 190.66 38.94 191 59 C194.3 53.06 197.6 47.12 201 41 C203.42327909 36.8027532 205.85331625 32.61331258 208.3125 28.4375 C212.29087656 21.66851968 216.22619181 14.88556359 220 8 C223.3914178 8.67013395 226.0112775 9.97546055 229.015625 11.66796875 C230.50243774 12.5021936 230.50243774 12.5021936 232.01928711 13.35327148 C233.08542236 13.95856689 234.15155762 14.5638623 235.25 15.1875 C236.91977905 16.12928101 236.91977905 16.12928101 238.62329102 17.09008789 C248.10260671 22.45302396 257.51428458 27.9299443 266.91015625 33.4375 C273.21570419 37.1321331 279.54294436 40.78852681 285.875 44.4375 C286.95515381 45.06003662 288.03530762 45.68257324 289.14819336 46.32397461 C291.33796334 47.58576826 293.52782355 48.84740534 295.71777344 50.10888672 C301.14659942 53.23680148 306.57319281 56.36858448 312 59.5 C314.16665583 60.75001879 316.3333225 62.00001878 318.5 63.25 C331.5 70.75 331.5 70.75 334.75415039 72.62744141 C336.90692816 73.86939744 339.05975963 75.1112604 341.21264648 76.35302734 C346.24616915 79.25646913 351.27918048 82.160785 356.31021118 85.06854248 C358.08362608 86.09345403 359.85721646 87.11806123 361.63085938 88.14257812 C363.84995773 89.42452738 366.06873016 90.70704107 368.28710938 91.99023438 C374.16127054 95.382778 380.0562835 98.73072173 386 102 C385.40924538 106.04879699 384.11163907 108.92133957 382.04296875 112.4375 C381.12366577 114.01362061 381.12366577 114.01362061 380.18579102 115.62158203 C379.52635498 116.73645996 378.86691895 117.85133789 378.1875 119 C377.51085718 120.15563078 376.83500178 121.31172295 376.15991211 122.46826172 C374.78386181 124.82501261 373.40496302 127.18006171 372.02441406 129.53417969 C368.99613539 134.70762443 366.02931268 139.91614083 363.0625 145.125 C362.07425586 146.85679201 361.08597849 148.58856506 360.09765625 150.3203125 C359.39835238 151.54682647 358.69909713 152.77336817 358 154 C370.35111688 147.23183747 382.54948626 140.22458552 394.69921875 133.1015625 C396.07279541 132.29960449 396.07279541 132.29960449 397.47412109 131.48144531 C399.03989279 130.56310947 400.60109081 129.63686651 402.15478516 128.69824219 C406.67830882 126 406.67830882 126 410 126 C410.55945313 127.0209375 411.11890625 128.041875 411.6953125 129.09375 C417.12177397 138.95101312 422.71307572 148.70076939 428.40283203 158.40820312 C432.98888414 166.24194141 437.50705105 174.11269997 442 182 C447.53951839 191.72143706 453.13375194 201.40895317 458.78344727 211.06689453 C463.02617273 218.32211726 467.23998054 225.59353319 471.4375 232.875 C472.05657227 233.94886963 472.67564453 235.02273926 473.31347656 236.12915039 C475.86322796 240.55350496 478.41182081 244.97852587 480.95996094 249.40380859 C482.2679191 251.67506465 483.57618488 253.94614359 484.88476562 256.21704102 C486.15504341 258.42152638 487.4245925 260.62643181 488.69335938 262.83178711 C491.48465779 267.67597083 494.29078537 272.50859507 497.1640625 277.3046875 C497.63739014 278.09673584 498.11071777 278.88878418 498.59838867 279.70483398 C499.46242158 281.14541391 500.33198539 282.58269773 501.20825195 284.01586914 C504 288.66998719 504 288.66998719 504 292 C503.36835938 292.35078613 502.73671875 292.70157227 502.0859375 293.06298828 C486.95990687 301.47330106 471.94734477 310.04189598 457.03344727 318.82348633 C455.71109072 319.58857652 454.3664523 320.31677385 453 321 C482.205 321.495 482.205 321.495 512 322 C512 384.7 512 447.4 512 512 C343.04 512 174.08 512 0 512 C0 343.04 0 174.08 0 0 Z " fill="#FFA052" transform="translate(0,0)"/>
<path d="M0 0 C0.55945313 1.0209375 1.11890625 2.041875 1.6953125 3.09375 C7.12177397 12.95101312 12.71307572 22.70076939 18.40283203 32.40820312 C22.98888414 40.24194141 27.50705105 48.11269997 32 56 C37.53951839 65.72143706 43.13375194 75.40895317 48.78344727 85.06689453 C53.02617273 92.32211726 57.23998054 99.59353319 61.4375 106.875 C62.3661084 108.48580444 62.3661084 108.48580444 63.31347656 110.12915039 C65.86322796 114.55350496 68.41182081 118.97852587 70.95996094 123.40380859 C72.2679191 125.67506465 73.57618488 127.94614359 74.88476562 130.21704102 C76.15504341 132.42152638 77.4245925 134.62643181 78.69335938 136.83178711 C81.48465779 141.67597083 84.29078537 146.50859507 87.1640625 151.3046875 C87.63739014 152.09673584 88.11071777 152.88878418 88.59838867 153.70483398 C89.46242158 155.14541391 90.33198539 156.58269773 91.20825195 158.01586914 C94 162.66998719 94 162.66998719 94 166 C93.36835938 166.35078613 92.73671875 166.70157227 92.0859375 167.06298828 C76.95990687 175.47330106 61.94734477 184.04189598 47.03344727 192.82348633 C45.71109072 193.58857652 44.3664523 194.31677385 43 195 C72.205 195.495 72.205 195.495 102 196 C102 258.7 102 321.4 102 386 C-4.26 386 -110.52 386 -220 386 C-220 372.8 -220 359.6 -220 346 C-209.875 339.25 -209.875 339.25 -204.9375 336.625 C-203.52791016 335.87089844 -203.52791016 335.87089844 -202.08984375 335.1015625 C-201.05537109 334.55628906 -201.05537109 334.55628906 -200 334 C-200.575393 329.97720539 -201.83068744 327.28674021 -204.01171875 323.875 C-204.60404297 322.92109375 -205.19636719 321.9671875 -205.80664062 320.984375 C-207.06388941 318.98948804 -208.32958117 316.99989804 -209.60351562 315.015625 C-210.19197266 314.06171875 -210.78042969 313.1078125 -211.38671875 312.125 C-211.93545654 311.26132812 -212.48419434 310.39765625 -213.04956055 309.5078125 C-214 307 -214 307 -213.3449707 304.51464844 C-212.67921021 303.26989746 -212.67921021 303.26989746 -212 302 C-211.55333984 301.14438477 -211.10667969 300.28876953 -210.64648438 299.40722656 C-209.87788086 298.03775879 -209.87788086 298.03775879 -209.09375 296.640625 C-208.52019775 295.61654541 -207.94664551 294.59246582 -207.35571289 293.53735352 C-206.43713501 291.91011353 -206.43713501 291.91011353 -205.5 290.25 C-204.86634521 289.12327881 -204.23269043 287.99655762 -203.57983398 286.83569336 C-199.74999436 280.04482257 -195.86664399 273.29015254 -191.8894043 266.5847168 C-188.14695337 260.27275475 -184.47596521 253.92058399 -180.8125 247.5625 C-180.17449463 246.45527588 -179.53648926 245.34805176 -178.87915039 244.20727539 C-177.57110523 241.93662932 -176.26324552 239.66587642 -174.95556641 237.39501953 C-171.80667946 231.9283002 -168.65316736 226.46425113 -165.5 221 C-164.2499765 218.83334689 -162.99997653 216.66668021 -161.75 214.5 C-149.25 192.83333333 -136.75 171.16666667 -124.25 149.5 C-123.63116943 148.42733887 -123.01233887 147.35467773 -122.37475586 146.24951172 C-121.12564482 144.08442929 -119.87645871 141.91939018 -118.62719727 139.75439453 C-115.48797691 134.31384294 -112.35009437 128.87252784 -109.21484375 123.4296875 C-102.62618546 111.99505104 -96.00877317 100.57842608 -89.34399414 89.18798828 C-85.14864445 82.00387171 -81.01678143 74.78484532 -76.90249634 67.5541687 C-73.94610783 62.363081 -70.97416135 57.18092134 -68 52 C-67.41347656 50.97600098 -66.82695312 49.95200195 -66.22265625 48.89697266 C-64.61981209 46.11096668 -63.00077132 43.33517344 -61.375 40.5625 C-60.91464355 39.75844727 -60.45428711 38.95439453 -59.97998047 38.12597656 C-54.37858767 28.67324107 -46.20119665 24.63052729 -36.8125 19.375 C-34.92781773 18.31243935 -33.04416261 17.24807446 -31.16059875 16.18353271 C-29.90439904 15.47371391 -28.64779789 14.76460507 -27.39079285 14.05621338 C-23.58543606 11.90887379 -19.80340951 9.72661917 -16.0390625 7.5078125 C-15.16660889 6.99428223 -14.29415527 6.48075195 -13.39526367 5.95166016 C-11.79360166 5.00565019 -10.19465547 4.05502224 -8.59887695 3.09912109 C-3.33061218 0 -3.33061218 0 0 0 Z " fill="#3A2E4D" transform="translate(410,126)"/>
<path d="M0 0 C3.3914178 0.67013395 6.0112775 1.97546055 9.015625 3.66796875 C10.0068335 4.22411865 10.99804199 4.78026855 12.01928711 5.35327148 C13.08542236 5.95856689 14.15155762 6.5638623 15.25 7.1875 C16.36318604 7.815354 17.47637207 8.44320801 18.62329102 9.09008789 C28.10260671 14.45302396 37.51428458 19.9299443 46.91015625 25.4375 C53.21570419 29.1321331 59.54294436 32.78852681 65.875 36.4375 C67.49523071 37.37130493 67.49523071 37.37130493 69.14819336 38.32397461 C71.33796334 39.58576826 73.52782355 40.84740534 75.71777344 42.10888672 C81.14659942 45.23680148 86.57319281 48.36858448 92 51.5 C94.16665583 52.75001879 96.3333225 54.00001878 98.5 55.25 C111.5 62.75 111.5 62.75 114.75415039 64.62744141 C116.90692816 65.86939744 119.05975963 67.1112604 121.21264648 68.35302734 C126.24616915 71.25646913 131.27918048 74.160785 136.31021118 77.06854248 C138.08362608 78.09345403 139.85721646 79.11806123 141.63085938 80.14257812 C143.84995773 81.42452738 146.06873016 82.70704107 148.28710938 83.99023438 C154.16127054 87.382778 160.0562835 90.73072173 166 94 C165.40978811 98.00162756 164.15443329 100.85292779 162.11328125 104.33203125 C161.5112085 105.36658447 160.90913574 106.4011377 160.28881836 107.46704102 C159.6366333 108.57104248 158.98444824 109.67504395 158.3125 110.8125 C157.6368238 111.96699959 156.96178363 113.12187164 156.28735352 114.27709961 C154.89263699 116.66400484 153.49405521 119.04858423 152.09277344 121.43164062 C150.08054216 124.85716107 148.08909345 128.29445657 146.1015625 131.734375 C144.88032357 133.84381672 143.65897409 135.95319444 142.4375 138.0625 C141.87909424 139.02969971 141.32068848 139.99689941 140.74536133 140.9934082 C138.29479345 145.20537929 135.80645861 149.34708275 133.0625 153.375 C129.61224913 158.47333406 126.5940085 163.79899261 123.56808472 169.15704346 C122.17492545 171.62372725 120.77420869 174.08609285 119.37397766 176.54876709 C118.64924366 177.82350632 117.92486964 179.09845027 117.20085144 180.37359619 C113.64138549 186.64042339 110.04342504 192.88480067 106.4375 199.125 C105.82334229 200.188396 105.20918457 201.25179199 104.57641602 202.34741211 C103.33742218 204.49245574 102.09824634 206.63739426 100.85888672 208.78222656 C97.73675395 214.18670645 94.61858796 219.59347412 91.5 225 C90.25001878 227.1666775 89.00001879 229.33334417 87.75 231.5 C87.13125 232.5725 86.5125 233.645 85.875 234.75 C84 238 82.125 241.25 80.25 244.5 C79.63036377 245.57427246 79.01072754 246.64854492 78.37231445 247.75537109 C77.13209409 249.90461202 75.89105646 252.05338156 74.64916992 254.20166016 C71.71929942 259.27218969 68.79795439 264.34709468 65.90567017 269.43914795 C64.54046335 271.84149946 63.17056329 274.24115891 61.80029297 276.640625 C60.83623142 278.33333218 59.87896467 280.02990354 58.921875 281.7265625 C58.33535156 282.75265625 57.74882812 283.77875 57.14453125 284.8359375 C56.63253174 285.73876465 56.12053223 286.6415918 55.59301758 287.57177734 C53.96049593 290.06021571 52.1742396 291.97793069 50 294 C35.63247779 286.02089391 21.34994578 277.92106035 7.171875 269.609375 C-0.70681068 264.99259812 -8.62220702 260.43973144 -16.53686523 255.88500977 C-17.57012939 255.29002686 -18.60339355 254.69504395 -19.66796875 254.08203125 C-20.57828857 253.55843018 -21.4886084 253.0348291 -22.42651367 252.49536133 C-23.27576416 252.00189209 -24.12501465 251.50842285 -25 251 C-26.29560081 250.4476054 -26.29560081 250.4476054 -27.61737537 249.88405132 C-30 248 -30 248 -30.65434551 244.63689137 C-30.69365796 243.21167623 -30.70517415 241.78554177 -30.69548035 240.3598175 C-30.71670541 239.18080857 -30.71670541 239.18080857 -30.73835927 237.97798127 C-30.77949383 235.33439842 -30.78465262 232.6919761 -30.78979492 230.0480957 C-30.81129955 228.15556056 -30.83480079 226.2630472 -30.8601532 224.37055969 C-30.92157493 219.21638818 -30.94962885 214.06256089 -30.96801162 208.90807366 C-30.98045476 205.67941106 -30.99901244 202.45084021 -31.01952553 199.22221947 C-31.08985967 187.9320551 -31.12972407 176.64217123 -31.14624023 165.35180664 C-31.1624984 154.87606002 -31.25002932 144.40254375 -31.37062758 133.92752773 C-31.47080778 124.90714819 -31.51590873 115.88750189 -31.5205906 106.86657208 C-31.52449802 101.49146139 -31.55014598 96.11874874 -31.6330471 90.74422646 C-32.24532062 48.61618286 -32.24532062 48.61618286 -17.66090012 30.16714668 C-15.21895653 26.9808925 -13.30845617 23.55403666 -11.38671875 20.0390625 C-10.75958984 18.95238281 -10.13246094 17.86570312 -9.48632812 16.74609375 C-8.89271484 15.71613281 -8.29910156 14.68617187 -7.6875 13.625 C-6.72166992 11.95244141 -6.72166992 11.95244141 -5.73632812 10.24609375 C-5.12595703 9.18777344 -4.51558594 8.12945312 -3.88671875 7.0390625 C-3.35264404 6.11303223 -2.81856934 5.18700195 -2.26831055 4.23291016 C-1.4776882 2.8409887 -0.71589511 1.43179021 0 0 Z " fill="#D63C75" transform="translate(220,8)"/>
<path d="M0 0 C62.7 0 125.4 0 190 0 C190 14.19 190 28.38 190 43 C191.65 43.66 193.3 44.32 195 45 C196.71009756 45.91051276 198.40372345 46.85245401 200.08203125 47.8203125 C201.01337891 48.35527344 201.94472656 48.89023437 202.90429688 49.44140625 C203.86400391 49.99699219 204.82371094 50.55257812 205.8125 51.125 C206.79154297 51.68832031 207.77058594 52.25164062 208.77929688 52.83203125 C211.18789555 54.21844415 213.59471395 55.60785055 216 57 C216 61.26321388 215.43167914 62.48717477 213.3671875 66.0703125 C212.52800781 67.53984375 212.52800781 67.53984375 211.671875 69.0390625 C211.07890625 70.05742187 210.4859375 71.07578125 209.875 72.125 C209.30523437 73.12015625 208.73546875 74.1153125 208.1484375 75.140625 C203.46985957 83.28560385 203.46985957 83.28560385 201.16113281 86.79589844 C200.59491211 87.66504883 200.02869141 88.53419922 199.4453125 89.4296875 C198.92727051 90.19265137 198.40922852 90.95561523 197.87548828 91.74169922 C196.74022532 94.00894752 196.74022532 94.00894752 197.66870117 96.47680664 C199.00488278 99.00925427 200.37838774 101.4881964 201.85546875 103.94140625 C202.39494141 104.85470703 202.93441406 105.76800781 203.49023438 106.70898438 C204.626531 108.6193749 205.76983331 110.52561496 206.91992188 112.42773438 C207.45552734 113.33974609 207.99113281 114.25175781 208.54296875 115.19140625 C209.03821045 116.01842041 209.53345215 116.84543457 210.04370117 117.69750977 C211 120 211 120 210.91723633 122.21362305 C210 124 210 124 208.15820312 124.82910156 C206.98161133 125.10705566 206.98161133 125.10705566 205.78125 125.390625 C199.2956783 127.33870163 199.2956783 127.33870163 191 135 C190.67 148.2 190.34 161.4 190 175 C127.3 175 64.6 175 0 175 C0 117.25 0 59.5 0 0 Z " fill="#FEE190" transform="translate(0,337)"/>
<path d="M0 0 C2.75746999 3.30538577 5.02895473 6.58942457 7.1015625 10.359375 C7.9522229 11.89549438 7.9522229 11.89549438 8.82006836 13.46264648 C9.4156958 14.54747314 10.01132324 15.6322998 10.625 16.75 C14.65708274 24.02314293 18.69013149 31.28750712 22.9375 38.4375 C27.0734168 45.40755659 31.14115345 52.41504747 35.1875 59.4375 C35.82478027 60.54327393 36.46206055 61.64904785 37.11865234 62.78833008 C39.0796138 66.1919253 41.03988215 69.59591889 43 73 C50.41169142 85.86925389 57.83218792 98.73297814 65.3125 111.5625 C65.88564941 112.54847168 66.45879883 113.53444336 67.04931641 114.55029297 C69.70232791 119.10563693 72.3786268 123.64171281 75.1328125 128.13671875 C75.60936279 128.92167725 76.08591309 129.70663574 76.5769043 130.51538086 C77.4558132 131.95888583 78.34465232 133.39641226 79.24536133 134.82641602 C82.02047441 139.40280529 82.02047441 139.40280529 81.93164062 141.99389648 C80.5437877 144.98236281 78.55225433 145.78235282 75.69140625 147.36328125 C74.56524902 147.99500244 73.4390918 148.62672363 72.27880859 149.27758789 C71.0400759 149.95595919 69.80130536 150.63426139 68.5625 151.3125 C67.28646755 152.02386791 66.01124934 152.7366982 64.73681641 153.45092773 C62.11024719 154.9219967 59.48071584 156.38755157 56.84912109 157.84960938 C51.15355468 161.02200345 45.51522862 164.29304705 39.875 167.5625 C37.72671756 168.80365385 35.57827984 170.04453896 33.4296875 171.28515625 C32.36975586 171.89762207 31.30982422 172.51008789 30.21777344 173.14111328 C24.81329351 176.26324607 19.40649893 179.38136526 14 182.5 C12.92878906 183.11810547 11.85757813 183.73621094 10.75390625 184.37304688 C5.31353925 187.51222374 -0.12762955 190.64999629 -5.5703125 193.78515625 C-16.02206199 199.80747329 -26.46299548 205.84669337 -36.875 211.9375 C-46.14096534 217.35685334 -55.44992009 222.69795389 -64.77636719 228.01217651 C-73.16951622 232.79567543 -81.535352 237.62363901 -89.875 242.5 C-90.85936035 243.07508301 -91.8437207 243.65016602 -92.85791016 244.24267578 C-98.1072705 247.30930877 -98.1072705 247.30930877 -103.35546875 250.37792969 C-105.35942105 251.54810112 -107.36649833 252.7126603 -109.375 253.875 C-110.43460938 254.49117187 -111.49421875 255.10734375 -112.5859375 255.7421875 C-115 257 -115 257 -117 257 C-118.97883125 253.49641438 -120.95424025 249.99092421 -122.92651367 246.48364258 C-123.59777817 245.29105795 -124.26997148 244.09899561 -124.94311523 242.9074707 C-125.91114075 241.19360118 -126.87553993 239.47768503 -127.83984375 237.76171875 C-128.71177368 236.2142395 -128.71177368 236.2142395 -129.60131836 234.63549805 C-131 232 -131 232 -132 229 C-130.97460938 226.68530273 -130.97460938 226.68530273 -129.34375 223.93359375 C-128.43967407 222.38937744 -128.43967407 222.38937744 -127.51733398 220.81396484 C-126.85161377 219.69973145 -126.18589355 218.58549805 -125.5 217.4375 C-124.81151088 216.26837063 -124.12410837 215.09860075 -123.43774414 213.92822266 C-122.00840157 211.49279336 -120.57438456 209.0602078 -119.13720703 206.62939453 C-115.85712204 201.0716937 -112.65217128 195.47068951 -109.4375 189.875 C-104.67391359 181.60843103 -99.87987478 173.36031927 -95.0625 165.125 C-90.01161981 156.48717999 -85.01975647 147.8168036 -80.0625 139.125 C-69.58421049 120.75351804 -59.01675205 102.43527399 -48.33935547 84.17871094 C-43.49937681 75.88819521 -38.73490711 67.55558443 -33.98278809 59.21456909 C-29.30765868 51.0103214 -24.58580018 42.83514492 -19.8125 34.6875 C-13.08108801 23.19644531 -6.51775476 11.61333477 0 0 Z " fill="#5B3256" transform="translate(328,202)"/>
<path d="M0 0 C0 54.12 0 108.24 0 164 C-70.95 164 -141.9 164 -215 164 C-215 150.8 -215 137.6 -215 124 C-204.8855359 117.25702393 -204.8855359 117.25702393 -200.25 114.703125 C-199.23881104 114.14246338 -198.22762207 113.58180176 -197.18579102 113.00415039 C-195.60882446 112.13584595 -195.60882446 112.13584595 -194 111.25 C-186.81107379 107.25824176 -179.63363437 103.26001356 -172.5625 99.0625 C-165.59230165 94.92682031 -158.58498988 90.85878933 -151.5625 86.8125 C-150.45527588 86.17449463 -149.34805176 85.53648926 -148.20727539 84.87915039 C-145.93662932 83.57110523 -143.66587642 82.26324552 -141.39501953 80.95556641 C-135.9283002 77.80667946 -130.46425113 74.65316736 -125 71.5 C-122.83334689 70.2499765 -120.66668021 68.99997653 -118.5 67.75 C-117.4275 67.13125 -116.355 66.5125 -115.25 65.875 C-79.5 45.25 -79.5 45.25 -76.24951172 43.37475586 C-74.08442929 42.12564482 -71.91939018 40.87645871 -69.75439453 39.62719727 C-64.31384294 36.48797691 -58.87252784 33.35009437 -53.4296875 30.21484375 C-41.59874052 23.39778476 -29.78147506 16.55886664 -18.00146484 9.65405273 C-1.50328279 0 -1.50328279 0 0 0 Z " fill="#174360" transform="translate(405,348)"/>
<path d="M0 0 C31.35 0 62.7 0 95 0 C95 75.9 95 151.8 95 230 C63.65 230 32.3 230 0 230 C0 154.1 0 78.2 0 0 Z " fill="#FFB04E" transform="translate(0,107)"/>
<path d="M0 0 C62.7 0 125.4 0 190 0 C190 35.64 190 71.28 190 108 C95.95 107.505 95.95 107.505 0 107 C0 71.69 0 36.38 0 0 Z " fill="#FE755C" transform="translate(0,0)"/>
<path d="M0 0 C0 62.7 0 125.4 0 190 C-35.31 190 -70.62 190 -107 190 C-107 135.55 -107 81.1 -107 25 C-98.75 20.38 -90.5 15.76 -82 11 C-63 0 -63 0 0 0 Z " fill="#092A40" transform="translate(512,322)"/>
<path d="M0 0 C31.35 0 62.7 0 95 0 C95 57.75 95 115.5 95 175 C63.65 175 32.3 175 0 175 C0 117.25 0 59.5 0 0 Z " fill="#FFF5D9" transform="translate(0,337)"/>
<path d="M0 0 C3.93195472 1.2717644 7.36655837 2.61732968 10.921875 4.73046875 C11.85112793 5.27823975 12.78038086 5.82601074 13.73779297 6.39038086 C15.22883545 7.27995483 15.22883545 7.27995483 16.75 8.1875 C18.91367549 9.46419778 21.07775166 10.74021671 23.2421875 12.015625 C24.35819336 12.67498047 25.47419922 13.33433594 26.62402344 14.01367188 C32.0212633 17.18925356 37.44764 20.3137656 42.875 23.4375 C45.05991376 24.69658348 47.24480949 25.95569823 49.4296875 27.21484375 C50.51475586 27.83987793 51.59982422 28.46491211 52.71777344 29.10888672 C58.14659942 32.23680148 63.57319281 35.36858448 69 38.5 C71.16665583 39.75001879 73.3333225 41.00001878 75.5 42.25 C79.83333333 44.75 84.16666667 47.25 88.5 49.75 C89.5739502 50.36955566 90.64790039 50.98911133 91.75439453 51.62744141 C93.9065213 52.86911527 96.05854073 54.11097522 98.21044922 55.35302734 C103.25030977 58.26166823 108.29117492 61.16851898 113.33599854 64.06854248 C115.11749578 65.09275665 116.89864322 66.11757651 118.6796875 67.14257812 C120.91076625 68.42633375 123.14249573 69.70895939 125.375 70.99023438 C130.98865365 74.22201335 136.53291438 77.52571298 142 81 C138.15618294 88.90535539 134.04462732 96.56508071 129.5625 104.125 C128.32231764 106.23402286 127.08275562 108.34341061 125.84375 110.453125 C125.20953125 111.53142578 124.5753125 112.60972656 123.921875 113.72070312 C120.77515862 119.08994784 117.66847008 124.48211385 114.5625 129.875 C113.9442334 130.94758057 113.3259668 132.02016113 112.68896484 133.12524414 C110.13825389 137.55081687 107.58894494 141.97719602 105.04003906 146.40380859 C101.26384662 152.96112839 97.48364679 159.51609256 93.6953125 166.06640625 C92.59727084 167.96647372 91.50081388 169.86745823 90.40625 171.76953125 C89.0050067 174.20346167 87.59733199 176.63353765 86.1875 179.0625 C85.78490967 179.76511963 85.38231934 180.46773926 84.9675293 181.19165039 C82.22885772 185.88557114 82.22885772 185.88557114 80 187 C77.85888672 186.05053711 77.85888672 186.05053711 75.1796875 184.52734375 C73.68320679 183.68345093 73.68320679 183.68345093 72.15649414 182.82250977 C71.07360107 182.20045654 69.99070801 181.57840332 68.875 180.9375 C67.19168579 179.98218384 67.19168579 179.98218384 65.47436523 179.00756836 C55.99468511 173.62045941 46.57728575 168.12484106 37.171875 162.609375 C29.29318932 157.99259812 21.37779298 153.43973144 13.46313477 148.88500977 C12.42987061 148.29002686 11.39660645 147.69504395 10.33203125 147.08203125 C9.42171143 146.55843018 8.5113916 146.0348291 7.57348633 145.49536133 C6.72423584 145.00189209 5.87498535 144.50842285 5 144 C4.13432309 143.59200259 3.26864618 143.18400518 2.37673664 142.76364422 C0 141 0 141 -0.61523914 138.42880726 C-0.61063018 137.39179015 -0.60602121 136.35477304 -0.60127258 135.28633118 C-0.6081459 134.09581146 -0.61501923 132.90529175 -0.62210083 131.67869568 C-0.60412445 130.37102737 -0.58614807 129.06335907 -0.56762695 127.71606445 C-0.56621673 126.32647757 -0.56700795 124.93688696 -0.56983948 123.54730225 C-0.57127611 119.77248151 -0.54184757 115.99845259 -0.50696969 112.22381616 C-0.47574671 108.28004469 -0.47277868 104.33625575 -0.46684265 100.39237976 C-0.45129217 92.92307678 -0.41024772 85.45413901 -0.3600952 77.98499697 C-0.30423895 69.48211784 -0.27672465 60.9792214 -0.25161803 52.47620451 C-0.19933266 34.98392497 -0.11136733 17.49200108 0 0 Z " fill="#FE4180" transform="translate(190,115)"/>
<path d="M0 0 C31.35 0 62.7 0 95 0 C95 35.31 95 70.62 95 107 C63.65 107 32.3 107 0 107 C0 71.69 0 36.38 0 0 Z " fill="#FFCE47" transform="translate(0,230)"/>
<path d="M0 0 C31.35 0 62.7 0 95 0 C95 35.31 95 70.62 95 107 C63.65 107 32.3 107 0 107 C0 71.69 0 36.38 0 0 Z " fill="#FF9356" transform="translate(0,0)"/>
<path d="M0 0 C3.1975539 2.9433916 5.27698333 5.88779138 7.3984375 9.671875 C8.03547607 10.79899902 8.67251465 11.92612305 9.32885742 13.08740234 C9.66211029 13.68397644 9.99536316 14.28055054 10.3387146 14.89520264 C11.75139179 17.42368554 13.17863427 19.94384008 14.60508728 22.46456909 C15.33681147 23.75788561 16.06781509 25.05161006 16.79811096 26.34573364 C20.20870747 32.3862596 23.68691127 38.38619658 27.1875 44.375 C27.74816162 45.33857422 28.30882324 46.30214844 28.88647461 47.29492188 C31.8097459 52.30696732 34.77469704 57.28908788 37.796875 62.2421875 C38.40764893 63.25104004 39.01842285 64.25989258 39.64770508 65.29931641 C40.81402421 67.22212817 41.99048349 69.13883701 43.1784668 71.04833984 C43.95444214 72.331521 43.95444214 72.331521 44.74609375 73.640625 C45.20685303 74.38860352 45.6676123 75.13658203 46.14233398 75.90722656 C47 78 47 78 46.91357422 80.09179688 C45.65141312 82.72810129 44.17332453 83.45960443 41.63671875 84.890625 C40.70150391 85.426875 39.76628906 85.963125 38.80273438 86.515625 C37.77470703 87.08796875 36.74667969 87.6603125 35.6875 88.25 C34.61951172 88.8584375 33.55152344 89.466875 32.45117188 90.09375 C30.15701228 91.39939086 27.86084307 92.70032405 25.56005859 93.99414062 C22.03786596 95.97578883 18.52722958 97.9772052 15.01953125 99.984375 C14.44193558 100.31483826 13.8643399 100.64530151 13.26924133 100.98577881 C12.09946491 101.65507154 10.92971091 102.32440345 9.75997925 102.99377441 C7.99389031 104.00349307 6.22672668 105.01130517 4.45922852 106.01855469 C-3.3451259 110.46763828 -11.11993549 114.96545681 -18.875 119.5 C-19.85936035 120.07508301 -20.8437207 120.65016602 -21.85791016 121.24267578 C-27.1072705 124.30930877 -27.1072705 124.30930877 -32.35546875 127.37792969 C-34.35942105 128.54810112 -36.36649833 129.7126603 -38.375 130.875 C-39.43460938 131.49117187 -40.49421875 132.10734375 -41.5859375 132.7421875 C-44 134 -44 134 -46 134 C-47.97883125 130.49641438 -49.95424025 126.99092421 -51.92651367 123.48364258 C-52.59777817 122.29105795 -53.26997148 121.09899561 -53.94311523 119.9074707 C-54.91114075 118.19360118 -55.87553993 116.47768503 -56.83984375 114.76171875 C-57.42113037 113.73006592 -58.00241699 112.69841309 -58.60131836 111.63549805 C-60 109 -60 109 -61 106 C-59.97460938 103.68530273 -59.97460938 103.68530273 -58.34375 100.93359375 C-57.43967407 99.38937744 -57.43967407 99.38937744 -56.51733398 97.81396484 C-55.85161377 96.69973145 -55.18589355 95.58549805 -54.5 94.4375 C-53.81151088 93.26837063 -53.12410837 92.09860075 -52.43774414 90.92822266 C-51.00840157 88.49279336 -49.57438456 86.0602078 -48.13720703 83.62939453 C-44.85712204 78.0716937 -41.65217128 72.47068951 -38.4375 66.875 C-33.67391365 58.60843114 -28.87989476 50.36030758 -24.0625 42.125 C-18.71925026 32.98758099 -13.43847381 23.81564136 -8.1875 14.625 C-7.83253448 14.00401428 -7.47756897 13.38302856 -7.11184692 12.7432251 C-3.43729882 6.43575752 -3.43729882 6.43575752 0 0 Z " fill="#AC396B" transform="translate(257,325)"/>
<path d="M0 0 C3.86349391 1.54539756 7.12420698 3.11206551 10.69921875 5.16796875 C11.81280762 5.80629639 12.92639648 6.44462402 14.07373047 7.10229492 C15.27838145 7.79725732 16.48296968 8.4923285 17.6875 9.1875 C18.94142546 9.9082088 20.19549673 10.62866396 21.44970703 11.34887695 C24.03353538 12.83346773 26.61614661 14.32014415 29.19775391 15.80859375 C32.74805424 17.85553267 36.30151411 19.89691227 39.85546875 21.9375 C53.63128996 29.85611879 67.34181867 37.88020912 81 46 C71.15964806 64.11378297 61.02983489 82.05216207 50.60546875 99.8359375 C46.6650474 106.56071969 42.76730839 113.30980311 38.875 120.0625 C38.24730713 121.15103271 37.61961426 122.23956543 36.97290039 123.36108398 C33.97191527 128.56837538 30.97707915 133.77900299 28 139 C18.16905347 135.06762139 9.21773998 129.21002695 0 124 C0 83.08 0 42.16 0 0 Z " fill="#FE745C" transform="translate(190,256)"/>
<path d="M0 0 C0 30.69 0 61.38 0 93 C-30.36 93 -60.72 93 -92 93 C-92 79.8 -92 66.6 -92 53 C-81.8855359 46.25702393 -81.8855359 46.25702393 -77.25 43.703125 C-76.23881104 43.14246338 -75.22762207 42.58180176 -74.18579102 42.00415039 C-73.13447998 41.42528076 -72.08316895 40.84641113 -71 40.25 C-63.81107676 36.25824341 -56.63358497 32.26009407 -49.5625 28.0625 C-39.07748749 21.83993287 -28.50507998 15.76921395 -17.93652344 9.68994141 C-15.37561729 8.21616419 -12.81638397 6.73954335 -10.2578125 5.26171875 C-8.98447287 4.52847586 -7.71104582 3.79538472 -6.4375 3.0625 C-4.85775391 2.15177734 -4.85775391 2.15177734 -3.24609375 1.22265625 C-1 0 -1 0 0 0 Z " fill="#235C81" transform="translate(282,419)"/>
<path d="M0 0 C3.65357103 1.46142841 6.71628422 2.87932955 10.08203125 4.8203125 C11.01337891 5.35527344 11.94472656 5.89023437 12.90429688 6.44140625 C13.86400391 6.99699219 14.82371094 7.55257813 15.8125 8.125 C16.79154297 8.68832031 17.77058594 9.25164062 18.77929688 9.83203125 C21.18789555 11.21844415 23.59471395 12.60785055 26 14 C26 18.26321388 25.43167914 19.48717477 23.3671875 23.0703125 C22.80773437 24.05 22.24828125 25.0296875 21.671875 26.0390625 C20.78242188 27.56660156 20.78242188 27.56660156 19.875 29.125 C19.30523437 30.12015625 18.73546875 31.1153125 18.1484375 32.140625 C13.46985957 40.28560385 13.46985957 40.28560385 11.16113281 43.79589844 C10.59491211 44.66504883 10.02869141 45.53419922 9.4453125 46.4296875 C8.92727051 47.19265137 8.40922852 47.95561523 7.87548828 48.74169922 C6.74022532 51.00894752 6.74022532 51.00894752 7.66870117 53.47680664 C9.00488278 56.00925427 10.37838774 58.4881964 11.85546875 60.94140625 C12.66467773 62.31135742 12.66467773 62.31135742 13.49023438 63.70898438 C14.626531 65.6193749 15.76983331 67.52561496 16.91992188 69.42773438 C17.45552734 70.33974609 17.99113281 71.25175781 18.54296875 72.19140625 C19.03821045 73.01842041 19.53345215 73.84543457 20.04370117 74.69750977 C21 77 21 77 20.90136719 79.1394043 C19.70346693 81.61210144 18.44067753 82.27755861 16.03515625 83.578125 C15.23529297 84.01640625 14.43542969 84.4546875 13.61132812 84.90625 C12.77021484 85.3496875 11.92910156 85.793125 11.0625 86.25 C9.80663086 86.93835938 9.80663086 86.93835938 8.52539062 87.640625 C2.31154669 91 2.31154669 91 0 91 C0 60.97 0 30.94 0 0 Z " fill="#FEF3D7" transform="translate(190,380)"/>
</svg>
