<?xml version="1.0" encoding="UTF-8"?>
<svg version="1.1" xmlns="http://www.w3.org/2000/svg" width="512" height="512">
<path d="M0 0 C0.85870193 -0.00705963 1.71740387 -0.01411926 2.60212708 -0.02139282 C38.52306125 -0.24973779 38.52306125 -0.24973779 54.609375 3.203125 C55.63820801 3.42307129 56.66704102 3.64301758 57.72705078 3.86962891 C69.24414761 6.39232486 80.4681175 9.33042291 91.609375 13.203125 C88.66294643 24.31919643 88.66294643 24.31919643 86.609375 29.203125 C87.13289551 29.36240479 87.65641602 29.52168457 88.19580078 29.68579102 C112.51570157 37.40171145 134.50300101 51.5373835 153.609375 68.203125 C154.18913086 68.7084375 154.76888672 69.21375 155.36621094 69.734375 C196.00274004 105.50383558 223.03310798 156.99593135 227.609375 211.203125 C227.74660027 214.38358409 227.77305106 217.5590288 227.77734375 220.7421875 C227.78067215 221.62611176 227.78400055 222.51003601 227.78742981 223.42074585 C227.7924609 225.2813058 227.79483933 227.14187466 227.79467773 229.00244141 C227.7968531 231.79996213 227.81501944 234.59708059 227.83398438 237.39453125 C227.86571824 247.87926063 227.27005612 257.84520087 225.609375 268.203125 C230.559375 269.523125 235.509375 270.843125 240.609375 272.203125 C234.83834258 312.60035191 216.30743446 351.5090635 189.609375 382.203125 C188.49369141 383.51216797 188.49369141 383.51216797 187.35546875 384.84765625 C182.5667458 390.32697302 177.45662218 395.51228187 172.359375 400.703125 C171.67319092 401.41082031 170.98700684 402.11851562 170.2800293 402.84765625 C169.29063354 403.84345703 169.29063354 403.84345703 168.28125 404.859375 C167.6944043 405.45556641 167.10755859 406.05175781 166.50292969 406.66601562 C164.609375 408.203125 164.609375 408.203125 159.609375 410.203125 C155.649375 405.253125 155.649375 405.253125 151.609375 400.203125 C147.18957011 401.30807622 145.47401986 402.71968205 141.984375 405.578125 C116.39762016 425.79920623 85.33418003 438.47132238 53.609375 445.203125 C52.86896973 445.36828613 52.12856445 445.53344727 51.36572266 445.70361328 C25.9739662 451.1394841 -5.07249392 450.85080386 -30.390625 445.203125 C-31.19935059 445.03151855 -32.00807617 444.85991211 -32.84130859 444.68310547 C-65.22084488 437.6897256 -98.43457523 423.99301752 -123.359375 401.75 C-125.36287878 399.90019559 -125.36287878 399.90019559 -128.390625 400.203125 C-130.5334602 402.42474115 -130.5334602 402.42474115 -132.578125 405.203125 C-133.29355469 406.13125 -134.00898438 407.059375 -134.74609375 408.015625 C-135.28878906 408.7375 -135.83148438 409.459375 -136.390625 410.203125 C-140.7652671 408.78967353 -143.28355967 406.69598852 -146.5234375 403.46875 C-146.99742981 402.99889679 -147.47142212 402.52904358 -147.95977783 402.04495239 C-149.4876378 400.5232534 -151.00254204 398.98950914 -152.515625 397.453125 C-153.03296204 396.93179993 -153.55029907 396.41047485 -154.08331299 395.87335205 C-161.80564572 388.08083538 -169.04305508 380.16638981 -175.390625 371.203125 C-176.14730469 370.16800781 -176.90398437 369.13289063 -177.68359375 368.06640625 C-196.10552723 342.28838229 -217.390625 304.70476844 -217.390625 272.203125 C-209.965625 270.223125 -209.965625 270.223125 -202.390625 268.203125 C-202.71289062 266.14707031 -203.03515625 264.09101563 -203.3671875 261.97265625 C-204.72842374 252.30063631 -204.78731914 242.64236091 -204.765625 232.890625 C-204.76508118 231.96859283 -204.76453735 231.04656067 -204.76397705 230.09658813 C-204.70231022 207.28750863 -201.66551731 185.88998823 -194.390625 164.203125 C-194.10735352 163.35476074 -193.82408203 162.50639648 -193.53222656 161.63232422 C-186.6729822 141.53587514 -176.9721012 122.33461451 -164.390625 105.203125 C-163.96990723 104.62836426 -163.54918945 104.05360352 -163.11572266 103.46142578 C-139.4695772 71.53335339 -102.94765058 38.8872101 -63.390625 29.203125 C-63.7515625 28.21570313 -64.1125 27.22828125 -64.484375 26.2109375 C-64.95329181 24.91672709 -65.42203269 23.62245294 -65.890625 22.328125 C-66.12910156 21.67714844 -66.36757812 21.02617188 -66.61328125 20.35546875 C-68.390625 15.4296875 -68.390625 15.4296875 -68.390625 13.203125 C-45.95148907 6.13333074 -23.66584649 0.13063575 0 0 Z M-23.390625 189.203125 C-24.37675781 189.97398437 -25.36289063 190.74484375 -26.37890625 191.5390625 C-35.56914823 199.25217137 -42.45806492 212.28139405 -43.58349609 224.25512695 C-44.24772892 242.27999042 -41.08011537 256.05372505 -29.390625 270.203125 C-19.24901721 281.0747707 -5.80075556 287.15673793 8.99682617 287.67602539 C23.17910576 287.82313622 34.06048091 284.62264134 45.609375 276.203125 C46.24359375 275.76484375 46.8778125 275.3265625 47.53125 274.875 C57.48715077 267.29390125 64.55110776 254.4005716 66.609375 242.203125 C68.41342979 225.61322565 65.53456356 211.81732169 55.609375 198.203125 C55.17109375 197.56890625 54.7328125 196.9346875 54.28125 196.28125 C46.68500336 186.30545622 33.81707217 179.29658799 21.609375 177.203125 C4.73613645 175.22885547 -10.04849742 178.25097853 -23.390625 189.203125 Z " fill="#FCB52F" transform="translate(244.390625,31.796875)"/>
<path d="M0 0 C4.55630394 0.45471347 8.17557595 1.79162907 12.296875 3.73828125 C12.88353439 4.01493622 13.47019379 4.29159119 14.07463074 4.57662964 C15.97182047 5.47779515 17.86158381 6.39310219 19.75 7.3125 C20.72092087 7.78243881 20.72092087 7.78243881 21.7114563 8.26187134 C32.7845212 13.64632993 43.10703983 19.6363162 53 27 C53.61294922 27.44907715 54.22589844 27.8981543 54.85742188 28.36083984 C101.54951417 62.80191223 130.49255887 113.30290037 140.5703125 170.11181641 C141.6361591 177.27600125 142.15820151 184.29636751 142.16796875 191.5390625 C142.17129715 192.42298676 142.17462555 193.30691101 142.17805481 194.21762085 C142.1830859 196.0781808 142.18546433 197.93874966 142.18530273 199.79931641 C142.1874781 202.59683713 142.20564444 205.39395559 142.22460938 208.19140625 C142.25634324 218.67613563 141.66068112 228.64207587 140 239 C144.95 240.32 149.9 241.64 155 243 C149.22896758 283.39722691 130.69805946 322.3059385 104 353 C102.88431641 354.30904297 102.88431641 354.30904297 101.74609375 355.64453125 C96.9573708 361.12384802 91.84724718 366.30915687 86.75 371.5 C85.72072388 372.56154297 85.72072388 372.56154297 84.6706543 373.64453125 C83.68125854 374.64033203 83.68125854 374.64033203 82.671875 375.65625 C82.0850293 376.25244141 81.49818359 376.84863281 80.89355469 377.46289062 C79 379 79 379 74 381 C71.36 377.7 68.72 374.4 66 371 C61.58019511 372.10495122 59.86464486 373.51655705 56.375 376.375 C28.11332057 398.71006043 -7.0231922 412.29685594 -42.4375 417.8125 C-43.18572021 417.93657227 -43.93394043 418.06064453 -44.70483398 418.18847656 C-54.52263954 419.56934414 -63.91157066 419 -74 419 C-74 392.6 -74 366.2 -74 339 C-78.95 339 -83.9 339 -89 339 C-92.38176174 338.56871756 -95.51350154 338.1061256 -98.8125 337.375 C-99.65304932 337.19461182 -100.49359863 337.01422363 -101.35961914 336.82836914 C-123.41155464 331.89229536 -143.73903393 322.76308972 -161 308 C-159.48133302 304.60256975 -157.49720998 301.98381716 -155.125 299.125 C-154.32320312 298.15820312 -153.52140625 297.19140625 -152.6953125 296.1953125 C-149.31048391 292.16719058 -145.87810544 288.17982806 -142.44384766 284.19384766 C-138.67131188 279.80793039 -134.99939147 275.34897637 -131.35546875 270.85546875 C-128.55759258 267.46368188 -125.68772256 264.13868595 -122.8125 260.8125 C-118.66590168 256.01124413 -114.70969041 251.15234779 -111 246 C-107.6360116 246.6331316 -105.3970802 247.92437323 -102.5625 249.8125 C-89.50401185 257.67791739 -75.05543456 258.92814081 -60.21484375 256.33984375 C-45.54450787 252.30069287 -33.83124495 242.70975175 -26.0234375 229.81787109 C-18.59520871 216.62355059 -17.59810952 200.43337996 -21.5625 185.9375 C-25.58189718 174.8485248 -32.58458151 164.84654068 -42.4375 158.3125 C-43.25831055 157.74692383 -43.25831055 157.74692383 -44.09570312 157.16992188 C-47.60195322 154.79231086 -51.20221482 152.86292055 -55 151 C-51.21015726 139.42006926 -47.22128289 127.93208734 -43.02346802 116.49401855 C-41.29075587 111.77169152 -39.5670638 107.04607592 -37.84375 102.3203125 C-37.46791275 101.28986816 -37.0920755 100.25942383 -36.70484924 99.19775391 C-33.496287 90.3884116 -30.32208619 81.56694724 -27.15625 72.7421875 C-26.90496275 72.04188793 -26.6536755 71.34158836 -26.39477348 70.6200676 C-24.12653317 64.29853482 -21.85910043 57.97671365 -19.59622192 51.65325928 C-14.75461015 38.12440152 -9.89444735 24.60337265 -4.87109375 11.140625 C-4.49275894 10.12248718 -4.11442413 9.10434937 -3.72462463 8.05535889 C-3.37907028 7.13506897 -3.03351593 6.21477905 -2.67749023 5.26660156 C-2.37608627 4.46208557 -2.07468231 3.65756958 -1.7641449 2.82867432 C-1 1 -1 1 0 0 Z " fill="#65CAC3" transform="translate(330,61)"/>
<path d="M0 0 C3.78518732 1.4160506 7.19749321 3.15421065 10.69921875 5.16796875 C11.81369385 5.80677979 12.92816895 6.44559082 14.07641602 7.10375977 C15.28018708 7.79820741 16.48387987 8.49279078 17.6875 9.1875 C18.9333766 9.90380065 20.17939098 10.61986171 21.42553711 11.33569336 C24.00123 12.81602568 26.57572887 14.29840663 29.14941406 15.78222656 C32.25436296 17.57176106 35.36278109 19.3551388 38.4730072 21.13548279 C41.33747541 22.77555112 44.19984907 24.41926184 47.0625 26.0625 C48.10043701 26.65635498 49.13837402 27.25020996 50.20776367 27.86206055 C56.92522894 31.72913161 63.49541361 35.78484896 70 40 C69.75354736 40.52207031 69.50709473 41.04414063 69.25317383 41.58203125 C54.1470093 73.78971366 47.73517622 106.90411126 57 142 C57.26490234 143.04027344 57.26490234 143.04027344 57.53515625 144.1015625 C66.16304259 177.20708195 87.93248719 206.01108859 117.125 223.7734375 C139.47195271 236.8554269 162.25613276 242.28374218 188 244 C188 270.4 188 296.8 188 324 C163.59874188 324 163.59874188 324 156.4375 322.8125 C155.58293213 322.6794043 154.72836426 322.54630859 153.84790039 322.40917969 C117.89737701 316.51035104 80.45132959 302.01669286 53.03125 277.546875 C51.02774622 275.69707059 51.02774622 275.69707059 48 276 C45.8571648 278.22161615 45.8571648 278.22161615 43.8125 281 C43.09707031 281.928125 42.38164063 282.85625 41.64453125 283.8125 C41.10183594 284.534375 40.55914062 285.25625 40 286 C35.6253579 284.58654853 33.10706533 282.49286352 29.8671875 279.265625 C29.39319519 278.79577179 28.91920288 278.32591858 28.43084717 277.84182739 C26.9029872 276.3201284 25.38808296 274.78638414 23.875 273.25 C23.35766296 272.72867493 22.84032593 272.20734985 22.30731201 271.67022705 C14.58497928 263.87771038 7.34756992 255.96326481 1 247 C0.24332031 245.96488281 -0.51335937 244.92976562 -1.29296875 243.86328125 C-19.71490223 218.08525729 -41 180.50164344 -41 148 C-33.575 146.02 -33.575 146.02 -26 144 C-26.32226562 141.94394531 -26.64453125 139.88789063 -26.9765625 137.76953125 C-28.33779874 128.09751131 -28.39669414 118.43923591 -28.375 108.6875 C-28.37445618 107.76546783 -28.37391235 106.84343567 -28.37335205 105.89346313 C-28.27069516 67.92314138 -18.47701411 33.1298921 0 0 Z " fill="#FE421D" transform="translate(68,156)"/>
<path d="M0 0 C3 1 3 1 4.29931641 2.97998047 C5.7595871 5.93720656 7.21205089 8.89475161 8.625 11.875 C9.42079468 13.55239258 9.42079468 13.55239258 10.23266602 15.26367188 C21.92621257 40.55424286 30.13015077 68.49591745 30.16796875 96.5390625 C30.17129715 97.42298676 30.17462555 98.30691101 30.17805481 99.21762085 C30.1830859 101.0781808 30.18546433 102.93874966 30.18530273 104.79931641 C30.1874781 107.59683713 30.20564444 110.39395559 30.22460938 113.19140625 C30.25634324 123.67613563 29.66068112 133.64207587 28 144 C35.425 145.98 35.425 145.98 43 148 C37.22896758 188.39722691 18.69805946 227.3059385 -8 258 C-8.74378906 258.87269531 -9.48757813 259.74539063 -10.25390625 260.64453125 C-15.0426292 266.12384802 -20.15275282 271.30915687 -25.25 276.5 C-26.27927612 277.56154297 -26.27927612 277.56154297 -27.3293457 278.64453125 C-27.98894287 279.30839844 -28.64854004 279.97226562 -29.328125 280.65625 C-29.9149707 281.25244141 -30.50181641 281.84863281 -31.10644531 282.46289062 C-33.27725554 284.22506458 -35.37204072 285.0844529 -38 286 C-46.49729802 275.69148653 -46.49729802 275.69148653 -50.375 270.625 C-53.72415213 266.28350649 -57.2591932 262.10833626 -60.81420898 257.93579102 C-63.73033961 254.5105184 -66.60271039 251.05582513 -69.4375 247.5625 C-72.89274439 243.31607264 -76.42705568 239.14710739 -80 235 C-85.09926752 229.07944455 -90.1244238 223.10740967 -95 217 C-95.89525391 215.95199219 -95.89525391 215.95199219 -96.80859375 214.8828125 C-97.20175781 214.26148438 -97.59492188 213.64015625 -98 213 C-96.89187926 209.67563779 -96.14463373 209.07314668 -93.5 206.9375 C-69.54558048 186.38087048 -54.23318356 153.75044743 -51.16992188 122.46044922 C-49.10106025 92.50357072 -54.66433427 66.79132707 -68 40 C-59.33410487 34.59439077 -50.57624209 29.40817823 -41.6875 24.375 C-39.24385362 22.98602016 -36.80145715 21.59485291 -34.359375 20.203125 C-33.74851547 19.85512848 -33.13765594 19.50713196 -32.50828552 19.14859009 C-26.12981956 15.51090705 -19.78000934 11.8249997 -13.4375 8.125 C-12.4271167 7.53638184 -11.4167334 6.94776367 -10.37573242 6.34130859 C-6.86441211 4.28971647 -3.38450954 2.25633969 0 0 Z " fill="#0070BC" transform="translate(442,156)"/>
<path d="M0 0 C-1.31157665 6.48908855 -3.11128629 12.530077 -5.4140625 18.73046875 C-5.91406265 20.0980407 -5.91406265 20.0980407 -6.42416382 21.49324036 C-7.48579366 24.39330953 -8.55517639 27.29044482 -9.625 30.1875 C-10.66686018 33.02621619 -11.70713246 35.86551066 -12.74725342 38.7048645 C-13.44058602 40.59364647 -14.13625764 42.48157152 -14.83428955 44.36862183 C-16.66769755 49.32969911 -18.46272874 54.30052654 -20.20214844 59.29541016 C-20.56013519 60.31242508 -20.91812195 61.32944 -21.28695679 62.37727356 C-21.97348234 64.33152359 -22.65080425 66.28903724 -23.31777954 68.25004578 C-23.62589569 69.12183975 -23.93401184 69.99363373 -24.25146484 70.8918457 C-24.65067642 72.04871635 -24.65067642 72.04871635 -25.05795288 73.22895813 C-26 75 -26 75 -29 76 C-30.6551184 75.51307754 -32.30938906 75.02288036 -33.95703125 74.51123047 C-47.1947053 71.19864808 -62.37521415 73.91591571 -73.96875 80.75 C-76.40618082 82.41318809 -78.71095717 84.13963246 -81 86 C-81.82113281 86.60585937 -82.64226562 87.21171875 -83.48828125 87.8359375 C-92.4067487 95.519967 -99.08759236 108.29267566 -100.19287109 120.05200195 C-100.85953316 138.14278616 -97.60256325 151.73520477 -86 166 C-84.35888057 167.69182818 -82.69924976 169.36656625 -81 171 C-81.66 171 -82.32 171 -83 171 C-83.21785156 171.52722656 -83.43570313 172.05445313 -83.66015625 172.59765625 C-85.50333091 175.90247379 -87.95234249 178.60875434 -90.4375 181.4375 C-91.52640975 182.69238903 -92.6149431 183.94760476 -93.703125 185.203125 C-94.52973633 186.15348633 -94.52973633 186.15348633 -95.37304688 187.12304688 C-97.83223171 189.96011365 -100.26292796 192.82084075 -102.6875 195.6875 C-103.14253906 196.22503906 -103.59757812 196.76257813 -104.06640625 197.31640625 C-106.89145578 200.66250238 -109.67518064 204.039251 -112.4375 207.4375 C-115.98933904 211.7957025 -119.60016311 216.09886967 -123.25 220.375 C-123.74556396 220.95822021 -124.24112793 221.54144043 -124.75170898 222.14233398 C-127.70102744 225.5837843 -130.75372084 228.83665497 -134 232 C-155.73400824 213.21528307 -170.80350917 189.85532764 -178 162 C-178.19609863 161.25975586 -178.39219727 160.51951172 -178.59423828 159.75683594 C-187.51898839 124.97731099 -180.83402662 88.50446737 -163.01904297 57.69433594 C-160.32491895 53.21488681 -157.25349379 49.08429667 -154 45 C-153.58878906 44.48195801 -153.17757812 43.96391602 -152.75390625 43.43017578 C-130.00654105 15.00440673 -97.97996595 -3.00268504 -61.828125 -7.5546875 C-42.02371317 -9.64904324 -18.25022266 -9.12511133 0 0 Z " fill="#F19F6E" transform="translate(302,136)"/>
<path d="M0 0 C3.59146579 3.50135733 6.9118199 7.14677231 10.125 11 C11.09365418 12.15372629 12.06240702 13.30736975 13.03125 14.4609375 C13.52238281 15.04713867 14.01351562 15.63333984 14.51953125 16.23730469 C15.95537145 17.94686377 17.39793899 19.65043168 18.84375 21.3515625 C23.10599342 26.36666808 27.34332942 31.39661441 31.5 36.5 C38.52370517 45.12056886 45.75899806 53.56190636 53 62 C60.22191562 70.41585195 67.4420872 78.83163245 74.4375 87.4375 C77.89274286 91.68392548 81.42701192 95.85293201 85 100 C90.10067271 105.92101542 95.09349817 111.91633342 100 118 C100.7425 118.88558594 101.485 119.77117187 102.25 120.68359375 C104 123 104 123 104 125 C101.74931353 126.9103238 99.49555136 128.68552084 97.125 130.4375 C96.40320557 130.97173584 95.68141113 131.50597168 94.93774414 132.05639648 C65.76597192 153.32100876 32.2283594 167.25767774 -3.4375 172.8125 C-4.18572021 172.93657227 -4.93394043 173.06064453 -5.70483398 173.18847656 C-15.52263954 174.56934414 -24.91157066 174 -35 174 C-35 147.6 -35 121.2 -35 94 C-39.95 94 -44.9 94 -50 94 C-53.38176174 93.56871756 -56.51350154 93.1061256 -59.8125 92.375 C-60.65304932 92.19461182 -61.49359863 92.01422363 -62.35961914 91.82836914 C-84.41155464 86.89229536 -104.73903393 77.76308972 -122 63 C-120.48133302 59.60256975 -118.49720998 56.98381716 -116.125 54.125 C-115.32320312 53.15820312 -114.52140625 52.19140625 -113.6953125 51.1953125 C-110.31048391 47.16719058 -106.87810544 43.17982806 -103.44384766 39.19384766 C-99.67131188 34.80793039 -95.99939147 30.34897637 -92.35546875 25.85546875 C-89.55759258 22.46368188 -86.68772256 19.13868595 -83.8125 15.8125 C-79.66590168 11.01124413 -75.70969041 6.15234779 -72 1 C-68.6360116 1.6331316 -66.3970802 2.92437323 -63.5625 4.8125 C-50.50401185 12.67791739 -36.05543456 13.92814081 -21.21484375 11.33984375 C-13.68071042 9.26548761 -5.60974453 5.60974453 0 0 Z " fill="#D97C80" transform="translate(291,306)"/>
<path d="M0 0 C-1.31157665 6.48908855 -3.11128629 12.530077 -5.4140625 18.73046875 C-5.91406265 20.0980407 -5.91406265 20.0980407 -6.42416382 21.49324036 C-7.48579366 24.39330953 -8.55517639 27.29044482 -9.625 30.1875 C-10.66686018 33.02621619 -11.70713246 35.86551066 -12.74725342 38.7048645 C-13.44058602 40.59364647 -14.13625764 42.48157152 -14.83428955 44.36862183 C-16.66769755 49.32969911 -18.46272874 54.30052654 -20.20214844 59.29541016 C-20.56013519 60.31242508 -20.91812195 61.32944 -21.28695679 62.37727356 C-21.97348234 64.33152359 -22.65080425 66.28903724 -23.31777954 68.25004578 C-23.62589569 69.12183975 -23.93401184 69.99363373 -24.25146484 70.8918457 C-24.65067642 72.04871635 -24.65067642 72.04871635 -25.05795288 73.22895813 C-26 75 -26 75 -29 76 C-30.6551184 75.51307754 -32.30938906 75.02288036 -33.95703125 74.51123047 C-47.1947053 71.19864808 -62.37521415 73.91591571 -73.96875 80.75 C-76.40201541 82.41034581 -78.70430168 84.15628128 -81 86 C-81.886875 86.598125 -82.77375 87.19625 -83.6875 87.8125 C-87.44679747 91.3685922 -90.15251607 95.70005308 -93 100 C-97.01844342 98.7669895 -100.48737342 97.31064232 -104.09765625 95.1640625 C-105.05325439 94.60050049 -106.00885254 94.03693848 -106.9934082 93.45629883 C-108.0062085 92.85197021 -109.01900879 92.2476416 -110.0625 91.625 C-112.22347516 90.3494415 -114.3849426 89.07471665 -116.546875 87.80078125 C-117.63033203 87.16092285 -118.71378906 86.52106445 -119.83007812 85.86181641 C-124.4677912 83.13791007 -129.13726479 80.47133044 -133.8125 77.8125 C-143.56921882 72.25560684 -153.28968976 66.63752869 -163 61 C-161.16687747 47.12772139 -142.44831071 30.41188837 -132 22 C-96.83102359 -4.69372024 -42.10331228 -21.05165614 0 0 Z " fill="#FDD281" transform="translate(302,136)"/>
<path d="M0 0 C4.55630394 0.45471347 8.17557595 1.79162907 12.296875 3.73828125 C12.88353439 4.01493622 13.47019379 4.29159119 14.07463074 4.57662964 C15.97182047 5.47779515 17.86158381 6.39310219 19.75 7.3125 C20.39728058 7.62579254 21.04456116 7.93908508 21.7114563 8.26187134 C32.7845212 13.64632993 43.10703983 19.6363162 53 27 C53.61294922 27.44907715 54.22589844 27.8981543 54.85742188 28.36083984 C76.72936536 44.49404681 95.14186685 64.44661356 109.875 87.25 C110.53242188 88.26578125 111.18984375 89.2815625 111.8671875 90.328125 C113 93 113 93 112.38745117 94.97314453 C110.58313634 97.6089745 108.74040015 98.58456728 105.93359375 100.1015625 C104.89968506 100.66875 103.86577637 101.2359375 102.80053711 101.8203125 C101.13583374 102.71363281 101.13583374 102.71363281 99.4375 103.625 C97.13465707 104.88663535 94.83257437 106.14965931 92.53125 107.4140625 C91.40589844 108.02926758 90.28054688 108.64447266 89.12109375 109.27832031 C85.18418027 111.45002822 81.30144806 113.70162547 77.4375 116 C76.79731934 116.37898438 76.15713867 116.75796875 75.49755859 117.1484375 C74.12920769 117.9587198 72.76122185 118.76961884 71.39355469 119.58105469 C66.28966374 122.60673953 61.17813497 125.61922023 56.0625 128.625 C55.00023193 129.2540625 53.93796387 129.883125 52.84350586 130.53125 C51.85487549 131.11132812 50.86624512 131.69140625 49.84765625 132.2890625 C48.96086182 132.81193848 48.07406738 133.33481445 47.16040039 133.87353516 C45 135 45 135 43 135 C41.63325065 132.98358504 40.37242901 130.96374386 39.125 128.875 C24.16782417 104.80782471 0.14679182 84.86425855 -27 76 C-26.44044857 68.98627941 -23.90777644 62.78196989 -21.44921875 56.234375 C-20.99400345 55.00519348 -20.53878815 53.77601196 -20.06977844 52.50958252 C-18.86254863 49.24991127 -17.64705789 45.99338314 -16.4296875 42.73748779 C-15.2041649 39.45568743 -13.98607346 36.1711333 -12.76757812 32.88671875 C-10.57194929 26.9701179 -8.36850391 21.05645823 -6.16195679 15.1439209 C-4.67467332 11.11975957 -3.23096839 7.08046739 -1.79866028 3.03643799 C-1 1 -1 1 0 0 Z " fill="#39B54A" transform="translate(330,61)"/>
<path d="M0 0 C1.19992065 2.1006012 1.19992065 2.1006012 2.19482422 4.90844727 C2.57557098 5.95787003 2.95631775 7.00729279 3.34860229 8.08851624 C3.74661041 9.23621994 4.14461853 10.38392365 4.5546875 11.56640625 C5.1907341 13.33853737 5.1907341 13.33853737 5.83963013 15.14646912 C6.97003379 18.30445497 8.0864218 21.46670061 9.19616699 24.63195801 C10.30629542 27.78906663 11.43312783 30.94012222 12.55859375 34.09179688 C13.86255873 37.7445555 15.16433605 41.3979687 16.45672607 45.05484009 C19.1922986 52.79186807 22.0363275 60.47368652 25.04345703 68.10913086 C26 71 26 71 26 75 C25.01902344 75.40089844 24.03804687 75.80179687 23.02734375 76.21484375 C8.51833402 82.27219672 -4.13697102 89.59703612 -16 100 C-16.81726563 100.67289062 -17.63453125 101.34578125 -18.4765625 102.0390625 C-29.07896331 111.02585938 -37.26711187 122.53539498 -45 134 C-53.08715395 129.63445796 -61.08907399 125.13201639 -69.0625 120.5625 C-70.27603429 119.86758152 -71.4895761 119.17267617 -72.703125 118.4777832 C-75.20773681 117.04309966 -77.71174403 115.60736778 -80.21533203 114.17089844 C-82.73113102 112.72743514 -85.24774526 111.28541078 -87.76513672 109.84472656 C-91.34533715 107.79563968 -94.92284142 105.74189276 -98.5 103.6875 C-99.59707275 103.05980713 -100.69414551 102.43211426 -101.82446289 101.78540039 C-102.84145264 101.20008545 -103.85844238 100.61477051 -104.90625 100.01171875 C-105.79634766 99.50084717 -106.68644531 98.98997559 -107.60351562 98.46362305 C-109.84963496 97.09183358 -111.92613769 95.61772099 -114 94 C-99.45443778 53.52866885 -53.57599015 21.95171739 -16.70288086 4.52709961 C-14.14219287 3.33388783 -11.58213158 2.14606289 -9 1 C-8.15671143 0.60369385 -7.31342285 0.2073877 -6.44458008 -0.20092773 C-3.65011028 -1.11437022 -2.67479402 -1.1547877 0 0 Z " fill="#F7931E" transform="translate(183,62)"/>
<path d="M0 0 C3.96971452 3.86679599 7.63491924 7.92661687 11.25 12.125 C11.82355225 12.78878662 12.39710449 13.45257324 12.98803711 14.13647461 C16.96813407 18.7590084 20.8524808 23.45086161 24.69140625 28.19140625 C27.41344254 31.50298678 30.20145714 34.75307666 33 38 C38.10079823 43.92090122 43.09350349 49.91634002 48 56 C48.7425 56.88558594 49.485 57.77117187 50.25 58.68359375 C52 61 52 61 52 63 C49.74931353 64.9103238 47.49555136 66.68552084 45.125 68.4375 C44.04230835 69.23885376 44.04230835 69.23885376 42.93774414 70.05639648 C13.76597192 91.32100876 -19.7716406 105.25767774 -55.4375 110.8125 C-56.18572021 110.93657227 -56.93394043 111.06064453 -57.70483398 111.18847656 C-67.52263954 112.56934414 -76.91157066 112 -87 112 C-87 85.6 -87 59.2 -87 32 C-80.4 31.34 -73.8 30.68 -67 30 C-43.63326607 25.80597083 -17.32656759 17.32656759 0 0 Z " fill="#652D91" transform="translate(343,368)"/>
<path d="M0 0 C1.29277786 0.85248395 2.58412941 1.70713073 3.875 2.5625 C4.71289062 3.11550781 5.55078125 3.66851562 6.4140625 4.23828125 C8.00050811 5.31907728 9.56472071 6.43464459 11.0859375 7.60546875 C33.25553302 24.45276065 60.87492636 30.19166176 88 32 C88 58.4 88 84.8 88 112 C63.59874188 112 63.59874188 112 56.4375 110.8125 C55.58293213 110.6794043 54.72836426 110.54630859 53.84790039 110.40917969 C17.62067991 104.46495006 -22.03392666 89.65862736 -49 64 C-49.66 63.01 -50.32 62.02 -51 61 C-50.23816406 60.11699219 -49.47632812 59.23398437 -48.69140625 58.32421875 C-43.90280707 52.76246032 -39.12556687 47.19890283 -34.5 41.5 C-31.06791676 37.27207137 -27.5544016 33.12479923 -24 29 C-18.90031635 23.07884772 -13.92262978 17.06947901 -9 11 C-7.31442253 8.93592067 -5.62586409 6.87430288 -3.9375 4.8125 C-3.18339844 3.89082031 -2.42929688 2.96914063 -1.65234375 2.01953125 C-1.10707031 1.35308594 -0.56179687 0.68664062 0 0 Z " fill="#C1272D" transform="translate(168,368)"/>
<path d="M0 0 C3.78518732 1.4160506 7.19749321 3.15421065 10.69921875 5.16796875 C11.81369385 5.80677979 12.92816895 6.44559082 14.07641602 7.10375977 C15.28018708 7.79820741 16.48387987 8.49279078 17.6875 9.1875 C18.9333766 9.90380065 20.17939098 10.61986171 21.42553711 11.33569336 C24.00123 12.81602568 26.57572887 14.29840663 29.14941406 15.78222656 C32.25436296 17.57176106 35.36278109 19.3551388 38.4730072 21.13548279 C41.33747541 22.77555112 44.19984907 24.41926184 47.0625 26.0625 C48.10043701 26.65635498 49.13837402 27.25020996 50.20776367 27.86206055 C56.92522894 31.72913161 63.49541361 35.78484896 70 40 C69.75354736 40.52207031 69.50709473 41.04414063 69.25317383 41.58203125 C58.71450921 64.0513988 52.78344318 84.58274688 52.875 109.5625 C52.87113281 110.62146484 52.86726563 111.68042969 52.86328125 112.77148438 C52.87125426 119.24158555 53.21340777 125.57735794 54 132 C39.83028466 135.02619549 25.57936763 137.46277839 11.28417969 139.80517578 C10.54692657 139.92610596 9.80967346 140.04703613 9.05007935 140.17163086 C7.57710858 140.41304234 6.10402564 140.65377043 4.63082886 140.89379883 C0.85206267 141.5135318 -2.91952865 142.16048445 -6.68603516 142.85107422 C-7.44958817 142.99024765 -8.21314117 143.12942108 -8.99983215 143.27281189 C-10.44559327 143.53812614 -11.89056293 143.80780736 -13.33451843 144.08277893 C-17.27141879 144.80445783 -20.997459 145.22482777 -25 145 C-30.68454756 139.31545244 -28.37912808 118.99834574 -28.38104248 111.40365601 C-28.37904846 110.50732452 -28.37705444 109.61099304 -28.375 108.6875 C-28.37445618 107.76546783 -28.37391235 106.84343567 -28.37335205 105.89346313 C-28.27069516 67.92314138 -18.47701411 33.1298921 0 0 Z " fill="#E86110" transform="translate(68,156)"/>
<path d="M0 0 C3 1 3 1 4.29931641 2.97998047 C5.7595871 5.93720656 7.21205089 8.89475161 8.625 11.875 C9.42079468 13.55239258 9.42079468 13.55239258 10.23266602 15.26367188 C21.92621257 40.55424286 30.13015077 68.49591745 30.16796875 96.5390625 C30.17296135 97.86494888 30.17296135 97.86494888 30.17805481 99.21762085 C30.1830859 101.0781808 30.18546433 102.93874966 30.18530273 104.79931641 C30.1874781 107.59683713 30.20564444 110.39395559 30.22460938 113.19140625 C30.25694337 123.56935416 30.05412631 133.78914208 28 144 C27.67 144.33 27.34 144.66 27 145 C17.28392156 144.89161268 7.71340889 143.06013464 -1.8125 141.3125 C-3.28296121 141.04757461 -4.75350319 140.78309718 -6.22412109 140.51904297 C-21.49853502 137.76598102 -36.75227976 134.89678741 -52 132 C-51.89606934 130.92032959 -51.89606934 130.92032959 -51.79003906 129.81884766 C-48.82813102 97.1166423 -53.36803065 69.39559857 -68 40 C-59.33410487 34.59439077 -50.57624209 29.40817823 -41.6875 24.375 C-39.24385362 22.98602016 -36.80145715 21.59485291 -34.359375 20.203125 C-33.74851547 19.85512848 -33.13765594 19.50713196 -32.50828552 19.14859009 C-26.12981956 15.51090705 -19.78000934 11.8249997 -13.4375 8.125 C-12.4271167 7.53638184 -11.4167334 6.94776367 -10.37573242 6.34130859 C-6.86441211 4.28971647 -3.38450954 2.25633969 0 0 Z " fill="#00A99D" transform="translate(442,156)"/>
<path d="M0 0 C9.71858801 0.45931489 19.03416415 1.94769411 28.56976318 3.78244019 C32.73400713 4.58361031 36.90246493 5.36236678 41.0703125 6.14453125 C42.32208786 6.38043724 42.32208786 6.38043724 43.59915161 6.62110901 C51.67770903 8.13924929 59.77250571 9.55359726 67.875 10.9375 C69.10992187 11.14858398 70.34484375 11.35966797 71.6171875 11.57714844 C74.41114411 12.05331755 77.20536667 12.52782162 80 13 C75.0686872 44.41950728 58.88061236 73.94092643 34 94 C30.45791353 91.32649474 27.68259025 88.60528783 24.9375 85.125 C21.37173156 80.67520578 17.72733026 76.31523539 14 72 C10.44495985 67.87577434 6.93206076 63.72790093 3.5 59.5 C-0.49932147 54.57382849 -4.60917117 49.75072407 -8.75195312 44.9453125 C-11.87134809 41.32631053 -14.95057892 37.67822506 -18 34 C-16.5095557 30.65223281 -14.55762966 28.15752316 -12.1875 25.375 C-5.90518439 17.61315354 -2.57251945 9.57729487 0 0 Z " fill="#65A9D6" transform="translate(310,274)"/>
<path d="M0 0 C3.59146579 3.50135733 6.9118199 7.14677231 10.125 11 C11.09365418 12.15372629 12.06240702 13.30736975 13.03125 14.4609375 C13.76794922 15.34023926 13.76794922 15.34023926 14.51953125 16.23730469 C15.95537145 17.94686377 17.39793899 19.65043168 18.84375 21.3515625 C23.84920766 27.24116011 28.79198987 33.17343359 33.671875 39.16796875 C37.20878113 43.47041328 40.81541865 47.71288053 44.421875 51.95703125 C46.96447714 54.95807226 49.48597372 57.97502953 52 61 C47.32703671 72.43384634 27.33328317 79.75700801 16.32055664 84.55541992 C-0.15285045 91.36526964 -17.24258579 94 -35 94 C-35 67.27 -35 40.54 -35 13 C-28.07 12.01 -28.07 12.01 -21 11 C-13.02044109 8.81077708 -6.22196894 5.47006937 0 0 Z " fill="#A280BC" transform="translate(291,306)"/>
<path d="M0 0 C28.56466924 9.97623489 56.82557201 30.63678304 71 58 C71 58.99 71 59.98 71 61 C70.42894531 61.32049316 69.85789062 61.64098633 69.26953125 61.97119141 C58.0892059 68.25234796 46.94262467 74.58450866 35.875 81.0625 C27.96918806 85.68555465 20.06078251 90.30352287 12.125 94.875 C10.78671143 95.65242554 10.78671143 95.65242554 9.42138672 96.44555664 C8.60428223 96.91469482 7.78717773 97.38383301 6.9453125 97.8671875 C6.22875488 98.28081543 5.51219727 98.69444336 4.77392578 99.12060547 C3 100 3 100 1 100 C-0.17436164 98.38901673 -1.28827612 96.73385381 -2.375 95.0625 C-7.81360898 87.38911715 -14.78917974 82.02313754 -23.1953125 77.87670898 C-23.90961426 77.52325912 -24.62391602 77.16980927 -25.35986328 76.8056488 C-25.9011084 76.5397847 -26.44235352 76.27392059 -27 76 C-22.59013276 62.47849961 -17.8295469 49.10375037 -12.9375 35.75 C-11.54994561 31.95343004 -10.16368585 28.15638777 -8.77734375 24.359375 C-8.44874359 23.46021362 -8.12014343 22.56105225 -7.78158569 21.63464355 C-5.15263191 14.43544932 -2.5611108 7.22360648 0 0 Z " fill="#88D291" transform="translate(302,136)"/>
<path d="M0 0 C0.25652344 0.93199219 0.51304687 1.86398437 0.77734375 2.82421875 C4.32395358 14.90884523 9.81916984 24.17476538 19 33 C18.34 33 17.68 33 17 33 C16.78214844 33.52722656 16.56429687 34.05445313 16.33984375 34.59765625 C14.49666909 37.90247379 12.04765751 40.60875434 9.5625 43.4375 C8.47359025 44.69238903 7.3850569 45.94760476 6.296875 47.203125 C5.47026367 48.15348633 5.47026367 48.15348633 4.62695312 49.12304688 C2.16776829 51.96011365 -0.26292796 54.82084075 -2.6875 57.6875 C-3.14253906 58.22503906 -3.59757812 58.76257813 -4.06640625 59.31640625 C-6.89145578 62.66250238 -9.67518064 66.039251 -12.4375 69.4375 C-15.98933904 73.7957025 -19.60016311 78.09886967 -23.25 82.375 C-23.74556396 82.95822021 -24.24112793 83.54144043 -24.75170898 84.14233398 C-27.70102744 87.5837843 -30.75372084 90.83665497 -34 94 C-58.29457121 73.00218688 -74.62923107 45.81213173 -80 14 C-68.4615905 10.71265063 -56.62977403 8.96172454 -44.8125 7 C-41.72483909 6.48300534 -38.63740708 5.96466205 -35.55001831 5.44604492 C-33.54312631 5.10926911 -31.53606833 4.7734808 -29.52883911 4.4387207 C-24.9696699 3.67671345 -20.41385387 2.90214959 -15.86474609 2.08203125 C-15.08161545 1.94095947 -14.2984848 1.7998877 -13.49162292 1.65454102 C-12.05509065 1.39393061 -10.6190965 1.13032736 -9.18379211 0.86303711 C-6.03008251 0.28987795 -3.22684529 0 0 0 Z " fill="#FE8D76" transform="translate(202,274)"/>
<path d="M0 0 C1.80859521 2.71289282 2.77665959 4.8512519 3.86010742 7.88842773 C4.3965815 9.38290688 4.3965815 9.38290688 4.94389343 10.90757751 C5.32721329 11.98866287 5.71053314 13.06974823 6.10546875 14.18359375 C6.50776199 15.30830582 6.91005524 16.43301788 7.32453918 17.59181213 C8.61602722 21.20568563 9.90175874 24.82157847 11.1875 28.4375 C12.03414429 30.80807164 12.88114573 33.17851576 13.72851562 35.54882812 C18.53764244 49.01445325 23.29701611 62.4969483 28 76 C26.8874585 76.56702637 26.8874585 76.56702637 25.75244141 77.14550781 C14.63389397 82.87731428 6.61669764 89.30811772 0 100 C-4.01844342 98.7669895 -7.48737342 97.31064232 -11.09765625 95.1640625 C-12.05325439 94.60050049 -13.00885254 94.03693848 -13.9934082 93.45629883 C-15.0062085 92.85197021 -16.01900879 92.2476416 -17.0625 91.625 C-19.22347516 90.3494415 -21.3849426 89.07471665 -23.546875 87.80078125 C-24.63033203 87.16092285 -25.71378906 86.52106445 -26.83007812 85.86181641 C-31.4677912 83.13791007 -36.13726479 80.47133044 -40.8125 77.8125 C-50.56921882 72.25560684 -60.28968976 66.63752869 -70 61 C-68.16687747 47.12772139 -49.44831071 30.41188837 -39 22 C-27.16739643 13.01889672 -14.20328637 4.63780779 0 0 Z " fill="#F9BD77" transform="translate(209,136)"/>
</svg>
