<?xml version="1.0" encoding="UTF-8"?>
<svg version="1.1" xmlns="http://www.w3.org/2000/svg" width="512" height="512">
<path d="M0 0 C5.74144225 2.88990189 9.58158081 7.94598722 12.0078125 13.80859375 C14.44615122 21.38275702 15.0179079 28.92896789 15.1796875 36.8515625 C15.20353516 38.00011719 15.22738281 39.14867187 15.25195312 40.33203125 C15.29491854 42.69903509 15.32617084 45.06628057 15.34570312 47.43359375 C15.51092277 54.28060342 15.81356863 62.19247488 21.00390625 67.3828125 C23.83464061 67.88450665 23.83464061 67.88450665 27.00390625 67.3828125 C29.80611229 65.0476408 31.7639995 62.75070521 33.75390625 59.69921875 C36.00390625 57.3828125 36.00390625 57.3828125 38.96484375 57.078125 C40.09148437 57.21992187 41.218125 57.36171875 42.37890625 57.5078125 C43.61125 57.63800781 44.84359375 57.76820312 46.11328125 57.90234375 C47.3971875 58.06089844 48.68109375 58.21945313 50.00390625 58.3828125 C52.54309237 58.67599162 55.08486007 58.94782684 57.62890625 59.1953125 C58.75554687 59.32550781 59.8821875 59.45570312 61.04296875 59.58984375 C64.09823295 59.64315763 64.09823295 59.64315763 66.37890625 57.62109375 C68.78017611 54.31357541 68.47155885 51.27100985 68.00390625 47.3828125 C67.53085747 44.8572131 66.99667722 42.34890367 66.4609375 39.8359375 C65.32478692 33.73762498 65.39152784 28.6809675 69.00390625 23.3828125 C75.63727724 18.16079704 81.76537621 17.62610405 90.00390625 18.3828125 C95.27267347 19.58808605 100.35019708 21.17257995 104.19140625 25.1328125 C106.37688945 29.05160996 106.89063369 32.04666887 106.00390625 36.3828125 C103.61741616 42.54512617 99.74804292 47.83275424 95.87890625 53.1328125 C94.81128663 54.60494986 93.74609138 56.07884915 92.68359375 57.5546875 C91.98339111 58.5152002 91.98339111 58.5152002 91.26904297 59.49511719 C88.26368105 63.97938163 87.7937186 66.91793353 88.00390625 72.3828125 C93.2297068 74.58314957 98.42113437 75.52689364 104.00390625 74.3828125 C108.60696931 71.54956121 111.86227239 67.72537674 115.00390625 63.3828125 C115.66390625 63.7128125 116.32390625 64.0428125 117.00390625 64.3828125 C116.64296875 65.24003906 116.28203125 66.09726563 115.91015625 66.98046875 C112.21092342 75.40567396 112.21092342 75.40567396 112.00390625 84.3828125 C116.80548098 93.61661006 125.48734382 98.02198766 135.00390625 101.3828125 C139.25210433 101.7171138 141.87464301 101.49013219 145.37890625 98.8984375 C149.05023899 95.47421369 151.97227177 91.36610668 155.00390625 87.3828125 C166.72543074 72.15805043 166.72543074 72.15805043 174.00390625 70.3828125 C177.78393254 70.24281153 180.03846316 70.54414476 182.9375 73.0625 C188.11400896 78.76634563 190.57633699 83.39994139 190.29296875 91.1796875 C189.79100939 95.00543179 188.71691256 96.60814696 186.00390625 99.3828125 C180.16241704 102.92036031 173.90073045 105.43977017 167.56640625 107.9453125 C161.51582705 110.44137389 157.85493 113.11484458 155.06640625 119.1328125 C153.22458041 124.73196305 154.62875972 129.32448662 156.98046875 134.5546875 C159.95564859 139.93834625 163.63841937 142.57095306 169.00390625 145.3828125 C170.61080081 146.23183621 172.21498349 147.08601248 173.81640625 147.9453125 C174.54472656 148.31785156 175.27304687 148.69039062 176.0234375 149.07421875 C178.33011948 150.59835773 179.57319925 152.02192448 181.00390625 154.3828125 C181.46260447 158.9697947 181.2591539 162.13678486 179.50390625 166.3828125 C177.20667955 172.159334 177.08078335 176.00828988 179.328125 181.7890625 C182.21845512 188.20880779 185.40746397 195.14070476 192.00390625 198.3828125 C198.81916767 200.47754653 205.29108778 200.76545108 212.37695312 200.94921875 C213.18841797 200.97886719 213.99988281 201.00851563 214.8359375 201.0390625 C215.56530518 201.05775391 216.29467285 201.07644531 217.04614258 201.09570312 C219.00390625 201.3828125 219.00390625 201.3828125 222.00390625 203.3828125 C221.37935547 203.45274414 220.75480469 203.52267578 220.11132812 203.59472656 C217.24015393 203.9251985 214.37227273 204.27882834 211.50390625 204.6328125 C210.52164062 204.74238281 209.539375 204.85195312 208.52734375 204.96484375 C201.05105958 205.91183974 194.36787038 207.52835941 189.06640625 213.1953125 C186.71507758 216.82918408 186.00390625 219.06319502 186.00390625 223.3828125 C187.32819786 227.17911512 189.15579351 228.64804092 192.62109375 230.40234375 C196.73119605 232.38498344 200.73278607 233.49139218 205.19140625 234.3828125 C205.95388672 234.54595947 206.71636719 234.70910645 207.50195312 234.87719727 C211.81823187 235.78600212 216.14639301 236.59336417 220.4921875 237.34765625 C242.69855343 241.22701081 242.69855343 241.22701081 247.4765625 247.234375 C249.9319696 251.5459034 250.71208538 255.42555861 250.00390625 260.3828125 C248.55309258 265.19770036 246.66539389 268.42429114 242.19140625 270.8828125 C236.97553071 273.05207682 232.46576022 273.01918525 227.12890625 271.2578125 C221.07258867 268.7449618 215.91899641 264.90232241 210.7890625 260.875 C210.22533936 260.43357666 209.66161621 259.99215332 209.08081055 259.53735352 C207.97553654 258.66578685 206.87632304 257.78645863 205.78442383 256.89819336 C199.56906069 251.964767 193.95311594 249.49956698 186.00390625 250.3828125 C180.12417608 253.35762975 178.09044029 257.17890697 175.37890625 262.8828125 C173.00581457 267.77005376 171.00087017 271.61374565 167.00390625 275.3828125 C165.71886697 280.33939258 165.88466763 283.72048755 168.00390625 288.3828125 C170.47718795 291.57077625 173.18926895 292.25203066 177.00390625 293.3203125 C178.73640625 293.83271484 178.73640625 293.83271484 180.50390625 294.35546875 C181.65890625 294.69449219 182.81390625 295.03351563 184.00390625 295.3828125 C196.34174531 299.06874192 196.34174531 299.06874192 200.00390625 305.3828125 C200.90192861 309.51371537 199.88761889 312.00289102 197.87890625 315.5703125 C195.39787922 319.1980327 193.3261817 321.11155502 189.00390625 322.3828125 C183.5845636 322.3828125 180.53161236 321.75747787 176.45703125 317.91796875 C169.00390625 310.04410282 169.00390625 310.04410282 169.00390625 307.3828125 C166.24804819 305.99555212 163.48685383 304.62617877 160.69140625 303.3203125 C159.97339844 302.97871094 159.25539063 302.63710938 158.515625 302.28515625 C155.37852454 301.15814193 152.30571003 300.77291599 149.00390625 300.3828125 C147.99201301 303.08721765 146.99424934 305.79552151 146.00390625 308.5078125 C145.71773438 309.26835937 145.4315625 310.02890625 145.13671875 310.8125 C143.58285021 315.10413693 142.3007802 318.77204786 143.00390625 323.3828125 C144.27896522 325.9134 145.55059587 328.19917006 147.06640625 330.5703125 C148.48885609 332.81566721 149.76375803 335.02271956 151.00390625 337.3828125 C150.67390625 338.3728125 150.34390625 339.3628125 150.00390625 340.3828125 C149.57980469 339.85171875 149.15570313 339.320625 148.71875 338.7734375 C144.41181469 333.58618355 140.76047401 329.39070976 133.90234375 327.9375 C119.57894398 326.83570002 103.38925819 337.21469822 90.88671875 342.9921875 C89.99355957 343.40436523 89.10040039 343.81654297 88.18017578 344.24121094 C85.87607297 345.31217447 85.87607297 345.31217447 84.00390625 347.3828125 C83.21884846 353.76244004 85.39211184 358.37087297 87.94140625 364.1328125 C94.90718176 380.74024991 94.90718176 380.74024991 91.94140625 389.2578125 C89.48633131 393.21761078 86.76035207 396.46007904 82.171875 397.99609375 C75.1175407 399.25443446 67.90690722 399.37581308 61.625 395.640625 C57.67322456 392.57442815 56.24584671 389.41970019 55.12890625 384.6328125 C54.56607675 377.18939232 56.81734852 370.68007281 59.62890625 363.8828125 C61.83419758 358.31707724 63.35905554 353.34769095 62.00390625 347.3828125 C59.53899182 343.60841228 57.87163123 342.63524159 53.56640625 341.3828125 C45.71282054 340.82826542 37.15941012 343.29691723 30.00390625 346.3828125 C29.70910028 354.09163371 29.70910028 354.09163371 31.06640625 361.6328125 C32.1050941 365.78756389 32.16817937 368.26904749 31.00390625 372.3828125 C27.95430761 376.09178382 24.83887371 379.07906599 19.92578125 379.60546875 C14.1470793 379.17934145 10.69073502 377.40527835 6.55078125 373.33984375 C4.12499 370.27085028 3.73124756 368.26819877 4.00390625 364.3828125 C5.41809325 360.53062604 7.44675476 357.19864147 9.75390625 353.8203125 C11.48209777 350.45033904 11.38418498 348.13300803 11.00390625 344.3828125 C8.37763728 341.17769241 5.06792358 338.96279745 1.68945312 336.57958984 C-0.03139528 335.3577476 -1.70629449 334.08527346 -3.38671875 332.80859375 C-9.9941692 327.97860247 -15.47881045 325.2116525 -23.91796875 325.89453125 C-38.68845645 328.23756547 -50.75422112 334.62913052 -61.99609375 344.3828125 C-63.65796092 345.72212317 -65.32342135 347.05702119 -66.99609375 348.3828125 C-67.32609375 347.7228125 -67.65609375 347.0628125 -67.99609375 346.3828125 C-67.2484375 345.35542969 -66.50078125 344.32804687 -65.73046875 343.26953125 C-55.35647648 328.85130744 -55.35647648 328.85130744 -52.62109375 311.62109375 C-53.23974071 307.92854472 -54.28759309 305.95588813 -56.99609375 303.3828125 C-63.70356893 302.40914675 -67.75032466 304.10245165 -73.28125 307.98828125 C-76.82241613 311.11164073 -79.44609886 314.66116511 -82.24609375 318.4453125 C-83.40133525 319.97472063 -84.5575874 321.50336588 -85.71484375 323.03125 C-87.25348696 325.07127867 -88.79193243 327.11144559 -90.328125 329.15332031 C-95.84644654 336.428697 -101.29430703 342.62841659 -110.24609375 345.3828125 C-114.29722066 345.3828125 -116.77108025 344.52032503 -119.74609375 341.7578125 C-122.33155747 336.84543143 -122.30842524 332.76599481 -121.12109375 327.5078125 C-114.71447799 312.72331459 -97.34086696 303.45105986 -84.47851562 295.11914062 C-75.87224421 290.02597205 -75.87224421 290.02597205 -70.18359375 282.1953125 C-69.96179403 280.35494398 -69.96179403 280.35494398 -69.99609375 278.3828125 C-70.57101563 278.1146875 -71.1459375 277.8465625 -71.73828125 277.5703125 C-74.05816913 276.35016386 -76.03623383 274.9682573 -78.12109375 273.3828125 C-78.80429688 272.8671875 -79.4875 272.3515625 -80.19140625 271.8203125 C-81.99609375 270.3828125 -81.99609375 270.3828125 -83.99609375 268.3828125 C-91.36096218 267.73447097 -96.95287119 269.39083816 -103.80859375 271.9453125 C-105.644908 272.62292394 -107.48465899 273.29131271 -109.328125 273.94921875 C-110.12968018 274.24771729 -110.93123535 274.54621582 -111.75708008 274.85375977 C-114.23482589 275.43922211 -115.6153482 275.20452188 -117.99609375 274.3828125 C-116.35060547 273.36960937 -116.35060547 273.36960937 -114.671875 272.3359375 C-113.21734262 271.43506583 -111.76292139 270.53401466 -110.30859375 269.6328125 C-109.58736328 269.189375 -108.86613281 268.7459375 -108.12304688 268.2890625 C-100.4534605 263.52621434 -96.02272721 259.50955814 -91.99609375 251.3828125 C-91.56296875 250.5578125 -91.12984375 249.7328125 -90.68359375 248.8828125 C-88.44653052 240.7480371 -90.42986724 232.86294778 -93.99609375 225.3828125 C-97.79464882 219.98236155 -102.31134837 214.48856784 -108.99755859 212.91040039 C-114.71140011 212.06457286 -119.51567356 212.8134968 -125.05859375 214.2578125 C-138.50607621 217.60525449 -153.9187881 220.32933299 -166.99609375 214.3828125 C-170.44131745 212.13287049 -171.6965811 211.28135045 -172.99609375 207.3828125 C-173.53639129 201.00730153 -172.61559668 196.7111955 -168.99609375 191.3828125 C-163.65166382 185.88992618 -156.6981688 184.02619209 -149.2487793 183.91479492 C-148.46414307 183.92486572 -147.67950684 183.93493652 -146.87109375 183.9453125 C-146.0406958 183.95216064 -145.21029785 183.95900879 -144.35473633 183.96606445 C-135.40441443 184.19626732 -127.62590347 186.60927693 -119.3046875 189.796875 C-110.29892309 193.46312645 -110.29892309 193.46312645 -100.99609375 192.3828125 C-97.42377793 189.36008373 -96.49440752 186.50148364 -96.046875 181.89453125 C-95.95638396 179.22973088 -95.95638396 179.22973088 -96.2265625 175.96484375 C-96.76109393 166.39370559 -96.76109393 166.39370559 -94.46484375 163.359375 C-92.38061601 161.84430176 -90.25612261 160.61734833 -87.99609375 159.3828125 C-82.00195422 154.96600546 -82.00195422 154.96600546 -78.99609375 148.3828125 C-78.42373831 143.76559792 -78.42373831 143.76559792 -80.26660156 139.74975586 C-82.19638573 138.22450719 -83.60026514 137.71408119 -85.98046875 137.13671875 C-86.75132812 136.93884766 -87.5221875 136.74097656 -88.31640625 136.53710938 C-89.92054982 136.14638952 -91.52471603 135.75576265 -93.12890625 135.36523438 C-99.33530682 133.77239569 -105.14602195 132.06840059 -108.93359375 126.5703125 C-110.68283621 121.32258513 -110.66741483 117.91342457 -108.43359375 112.8203125 C-104.73573617 107.0464647 -99.57698271 102.89050049 -93.03125 100.796875 C-88.66237313 99.90800562 -85.0707869 100.23650095 -81.13671875 102.41015625 C-77.31942016 105.13116455 -73.97350766 108.32880971 -70.56347656 111.53637695 C-62.1071056 119.72347051 -62.1071056 119.72347051 -50.99609375 122.3828125 C-51.0425 121.465 -51.08890625 120.5471875 -51.13671875 119.6015625 C-51.35684546 112.11725436 -51.27355135 106.63801931 -46.99609375 100.3828125 C-44.20207791 96.29157502 -43.08100861 93.28941188 -43.99609375 88.3828125 C-46.46811483 80.17570252 -50.16548361 72.96881805 -54.73828125 65.74609375 C-55.15335937 64.96621094 -55.5684375 64.18632813 -55.99609375 63.3828125 C-55.50109375 62.3928125 -55.50109375 62.3928125 -54.99609375 61.3828125 C-54.63370605 61.83084229 -54.27131836 62.27887207 -53.89794922 62.74047852 C-52.2233668 64.80959745 -50.54723899 66.87745941 -48.87109375 68.9453125 C-48.30132812 69.64978516 -47.7315625 70.35425781 -47.14453125 71.08007812 C-45.43565521 73.18704461 -43.71738668 75.28598272 -41.99609375 77.3828125 C-41.45090088 78.05562256 -40.90570801 78.72843262 -40.34399414 79.42163086 C-39.82571045 80.0481958 -39.30742676 80.67476074 -38.7734375 81.3203125 C-38.31702881 81.8771875 -37.86062012 82.4340625 -37.39038086 83.0078125 C-33.97498245 86.37596586 -29.1734587 86.50362624 -24.62109375 86.8203125 C-17.52394217 86.62719273 -12.17151788 82.70810219 -7.12109375 78.0078125 C-3.16690337 73.75935679 -0.99609375 70.05216535 -0.99609375 64.0703125 C-3.01257471 56.63453897 -6.95044754 50.40644544 -11.05859375 43.9453125 C-17.81343038 33.15031886 -21.20286162 22.16132706 -19.99609375 9.3828125 C-18.84068884 5.56937764 -17.5767109 2.40299851 -14.15625 0.1953125 C-9.65733315 -1.49686599 -4.58029852 -1.41621755 0 0 Z " fill="#000000" transform="translate(216.99609375,39.6171875)"/>
<path d="M0 0 C5.91294689 5.03106483 8.66637739 11.08302347 9.31640625 18.71484375 C9.78616236 29.81829018 8.09915417 37.69502607 0.75 46.25 C-8.19002403 55.53890302 -18.78763921 62.30400687 -31.98046875 63.203125 C-43.14095331 63.36625023 -51.65392101 61.72529625 -60 54 C-67.64723032 46.17492711 -67.64723032 46.17492711 -68.375 39.625 C-67.89195692 34.95558356 -66.52314225 34.00278655 -63 31 C-59.90625 29.41015625 -59.90625 29.41015625 -56.5 28.0625 C-55.25334486 27.55345602 -54.00726333 27.04300531 -52.76171875 26.53125 C-52.13442871 26.27730469 -51.50713867 26.02335937 -50.86083984 25.76171875 C-39.25205162 21.00976136 -28.93807645 15.38898093 -19.3125 7.3125 C-7.04542151 -2.91006541 -7.04542151 -2.91006541 0 0 Z " fill="#000000" transform="translate(494,142)"/>
<path d="M0 0 C-1.4515549 1.67257355 -2.91144409 3.33791758 -4.375 5 C-5.18710938 5.928125 -5.99921875 6.85625 -6.8359375 7.8125 C-7.55007812 8.534375 -8.26421875 9.25625 -9 10 C-9.66 10 -10.32 10 -11 10 C-11.23847656 10.54140625 -11.47695312 11.0828125 -11.72265625 11.640625 C-13.33474787 14.61831105 -15.33278292 17.0963727 -17.4375 19.75 C-21.95739958 25.51324849 -26.14995152 31.45835507 -30.24389648 37.53027344 C-39.82949173 51.706028 -39.82949173 51.706028 -48.49609375 53.5234375 C-53.08279067 53.816651 -56.25260804 53.33752229 -59.9375 50.5 C-64.29970778 46.11721576 -66.05423169 41.10833864 -66.4375 35 C-66.12625631 28.63817894 -63.17588735 23.81832251 -58.6875 19.4375 C-47.75161169 10.62469623 -33.82614523 7.17740147 -20.51660156 3.66992188 C-18.14651867 3.03900342 -15.78757639 2.37799412 -13.4296875 1.703125 C-12.07823748 1.32251705 -10.72668226 0.94228237 -9.375 0.5625 C-8.20710938 0.23378906 -7.03921875 -0.09492188 -5.8359375 -0.43359375 C-3 -1 -3 -1 0 0 Z " fill="#000000" transform="translate(83,322)"/>
<path d="M0 0 C6.796725 5.62487586 13.20812773 13.58855189 14.25 22.58984375 C14.31081622 27.31526428 14.29841159 30.82655805 12.3515625 35.1875 C7.55506427 40.10698537 3.01689902 42.24973799 -3.75390625 42.72265625 C-10.36924253 42.62292756 -16.02511521 41.07354599 -21.0859375 36.6875 C-26.03578854 30.56250447 -29.0859375 24.84025509 -29.0859375 16.8125 C-28.081448 10.86638398 -24.70549983 5.80426726 -20.05078125 2.04296875 C-13.76642129 -2.03305537 -6.85864174 -4.31554986 0 0 Z " fill="#000000" transform="translate(260.0859375,460.3125)"/>
<path d="M0 0 C4.85165127 2.74290206 7.93234247 5.63750864 9.6875 11 C10.5092162 16.56694217 10.63389565 21.96742317 8 27.0625 C4.88350812 31.02128698 1.70099005 33.26272205 -3.3125 34 C-9.21955747 34.5679863 -13.59123872 33.55331823 -18.3125 30 C-23.47012562 23.8999934 -24.84827453 17.90267437 -24.3125 10 C-23.13690192 5.59758788 -21.87320834 1.98923663 -18.3125 -1 C-12.01060405 -3.10063198 -6.06098222 -2.70385135 0 0 Z " fill="#000000" transform="translate(70.3125,110)"/>
<path d="M0 0 C12.76850239 8.0829847 27.25569883 22.96968468 31 38 C31.61469848 43.26884408 30.87629517 46.53678336 28 51 C24.51147149 54.14818427 22.35341357 55.92481036 17.625 56.1875 C12.56790123 55.92592593 12.56790123 55.92592593 10 54 C3.65360159 46.43314036 4.5921234 33.58477586 3.82446289 24.22167969 C3.25667875 17.73620002 2.2706928 11.6602627 0.5859375 5.36328125 C0 3 0 3 0 0 Z " fill="#000000" transform="translate(378,393)"/>
<path d="M0 0 C7.34769939 4.33127543 10.51519972 10.68440535 12.75219727 18.69287109 C13.42262698 21.51654002 14.03688426 24.34558545 14.625 27.1875 C16.41259976 35.70114099 16.41259976 35.70114099 19 44 C15.42489911 42.71020879 12.7002677 41.17604816 9.6875 38.875 C5.89910559 36.12342932 2.11041021 34.02336493 -2.11376953 32.05737305 C-15.12754298 25.99667284 -15.12754298 25.99667284 -18 19 C-19.32139786 14.43729093 -19.42242927 11.17835533 -17.8125 6.6875 C-13.02037861 -0.4180593 -8.25420893 -2.35071322 0 0 Z " fill="#000000" transform="translate(132,45)"/>
<path d="M0 0 C4.85620467 2.61487944 9.21884276 5.65652829 11 11 C11.36826224 16.61599916 11.21556007 20.17665989 8 25 C3.42006151 29.38081073 -0.14681276 31.68874321 -6.4375 32.375 C-11.86277187 31.80391875 -14.72350337 29.41449626 -18.3125 25.4375 C-21.18410556 21.28962531 -21.40640889 17.95818843 -21 13 C-19.10096173 7.18351706 -16.49367807 3.92216919 -11 1 C-7.2745281 -0.24182397 -3.86983526 -0.53604929 0 0 Z " fill="#000000" transform="translate(74,388)"/>
<path d="M0 0 C3.37319414 1.31994553 4.66115552 2.54431259 6.8125 5.4375 C9.97248343 14.91745029 7.92517819 24.06600548 4 33 C1.27907417 38.2817972 -1.51955741 43.02541383 -6 47 C-6.66 47 -7.32 47 -8 47 C-7.80921875 46.26136719 -7.6184375 45.52273437 -7.421875 44.76171875 C-5.63336962 36.57826682 -6.46577878 31.50880867 -10 24 C-15.84166199 11.36664795 -15.84166199 11.36664795 -14.3125 5.25 C-10.87643345 -0.64039979 -6.34280062 -0.8169618 0 0 Z " fill="#000000" transform="translate(353,35)"/>
<path d="M0 0 C3.45211024 2.30140683 4.9826251 4.1448704 6.8125 7.875 C7.67778735 12.29856087 7.17489949 15.16362322 5.125 19.1875 C1.94748304 22.88028998 -1.32715686 25.16024366 -6.1875 25.875 C-11.43276711 26.2635383 -14.7106279 25.68605923 -19.1875 22.875 C-22.0331159 18.60657615 -21.68754005 14.8832136 -21.1875 9.875 C-19.52032118 5.13670231 -17.33387955 2.6738062 -13.1875 -0.125 C-8.49815463 -1.68811512 -4.66994475 -1.64821579 0 0 Z " fill="#000000" transform="translate(370.1875,94.125)"/>
<path d="M0 0 C0.66 0.33 1.32 0.66 2 1 C1.54109375 2.07636719 1.0821875 3.15273438 0.609375 4.26171875 C-0.01180093 5.73639684 -0.63148603 7.21170344 -1.25 8.6875 C-1.57427979 9.45900391 -1.89855957 10.23050781 -2.23266602 11.02539062 C-4.1339078 15.63296028 -5.67121608 20.16978579 -6.9375 25 C-9.10290302 32.50359221 -13.54816212 37.69877475 -20 42 C-23.47558203 42.53955608 -26.81691564 42.6487882 -29.9375 40.9375 C-32.25737416 36.70714124 -32.33033427 33.13552406 -31 28.5625 C-26.48139322 19.62437869 -18.69061083 14.32568383 -10.71875 8.7109375 C-6.94718822 6.02977968 -3.46086512 3.06758499 0 0 Z " fill="#000000" transform="translate(135,401)"/>
<path d="M0 0 C2.375 1.0625 2.375 1.0625 4 3 C4.92131643 6.55364907 5.20853102 9.10331661 4.375 12.6875 C2.07449284 16.55653477 -0.76713288 18.58904429 -5 20 C-16.35511345 20.72184095 -26.91172948 19.30548199 -38 17 C-35.22292354 13.61511058 -31.42114354 12.04504875 -27.5625 10.1875 C-26.11692886 9.48360384 -24.67161863 8.77917159 -23.2265625 8.07421875 C-22.51145508 7.72665527 -21.79634766 7.3790918 -21.05957031 7.02099609 C-19.19634537 6.09733479 -17.35809779 5.12370387 -15.5234375 4.14453125 C-5.7301779 -1.07440836 -5.7301779 -1.07440836 0 0 Z " fill="#000000" transform="translate(488,225)"/>
<path d="M0 0 C13.80555556 0.80555556 13.80555556 0.80555556 19 6 C18.8125 9 18.8125 9 18 12 C15 14 15 14 12.08203125 13.9296875 C8.23929121 12.77053398 7.06677863 11.31277137 4.6875 8.125 C4.01074219 7.24070312 3.33398438 6.35640625 2.63671875 5.4453125 C1 3 1 3 0 0 Z " fill="#000000" transform="translate(384,386)"/>
<path d="M0 0 C1.56717623 6.32051242 2.48698801 11.59451318 1 18 C-2.22143276 20.14762184 -3.2595467 20.561068 -7 20 C-8.875 18.4375 -8.875 18.4375 -10 16 C-10.31676679 10.61496456 -8.41325961 7.95986645 -5 4.0625 C-1.20200334 0 -1.20200334 0 0 0 Z " fill="#000000" transform="translate(197,374)"/>
<path d="M0 0 C2.36002096 1.54622063 2.90125807 2.7319862 3.875 5.375 C4.04299299 8.90285284 3.29492223 10.33492902 1 13 C-1.875 14.0625 -1.875 14.0625 -5 14 C-7.875 12.4375 -7.875 12.4375 -10 10 C-10.5625 7 -10.5625 7 -10 4 C-7.21052575 -0.0769239 -4.82207542 -0.71818145 0 0 Z " fill="#000000" transform="translate(244,443)"/>
<path d="" fill="#000000" transform="translate(0,0)"/>
</svg>
